<?xml version="1.0" encoding="UTF-8"?>
<svg version="1.1" xmlns="http://www.w3.org/2000/svg" width="1024" height="1024">
<path d="M0 0 C337.92 0 675.84 0 1024 0 C1024 337.92 1024 675.84 1024 1024 C686.08 1024 348.16 1024 0 1024 C0 686.08 0 348.16 0 0 Z " fill="#F4F0E4" transform="translate(0,0)"/>
<path d="M0 0 C337.92 0 675.84 0 1024 0 C1024 337.92 1024 675.84 1024 1024 C686.08 1024 348.16 1024 0 1024 C0 686.08 0 348.16 0 0 Z M93 89 C92.09378906 89.84304687 91.18757813 90.68609375 90.25390625 91.5546875 C83.35832476 98.15378767 78.12133779 104.99665447 73 113 C72.44570312 113.83144531 71.89140625 114.66289063 71.3203125 115.51953125 C60.31178503 132.71679049 54.66628281 153.98002991 54.74273109 174.23819923 C54.73922502 175.42765996 54.73571895 176.61712069 54.73210663 177.84262568 C54.72443673 181.1274486 54.72562835 184.41212653 54.73066217 187.69694998 C54.73394392 191.27708548 54.72563373 194.85719784 54.71884382 198.43732584 C54.70855807 204.70664442 54.70569754 210.97593214 54.70775604 217.24525833 C54.71080973 226.5683619 54.7024739 235.89143138 54.69200679 245.21452832 C54.67267533 262.83614324 54.66703889 280.45774653 54.66589268 298.07937081 C54.6649732 311.68928242 54.66085449 325.29918946 54.65449142 338.90909958 C54.6526963 342.82828183 54.65091668 346.7474641 54.64914167 350.66664636 C54.64869957 351.64099912 54.64825748 352.61535187 54.64780198 353.61923046 C54.63549529 381.0223659 54.62760068 408.42549975 54.62848854 435.82863808 C54.6285197 436.86158537 54.62855086 437.89453266 54.62858296 438.95878139 C54.62874917 444.19405143 54.62894725 449.42932147 54.62915237 454.66459151 C54.62919226 455.70431318 54.62923215 456.74403485 54.62927325 457.81526324 C54.62935413 459.91783368 54.62943772 462.02040411 54.62952404 464.12297454 C54.63074941 496.83183805 54.61573822 529.54066008 54.58837891 562.24951172 C54.5576449 599.0079459 54.54044721 635.76635282 54.54230535 672.52480066 C54.54245461 676.44586905 54.54255202 680.36693744 54.54261398 684.28800583 C54.54263729 685.25345347 54.5426606 686.21890111 54.54268462 687.21360474 C54.54274611 702.73694184 54.52998507 718.26024288 54.51274945 733.78356927 C54.49577977 749.39038755 54.4938296 764.99715319 54.5069681 780.60397561 C54.51434832 789.8698033 54.51072706 799.13547083 54.49108342 808.40128149 C54.47905707 814.59893137 54.48170389 820.79646564 54.49602441 826.99411029 C54.5037651 830.51987566 54.50540452 834.04533183 54.48910971 837.57107504 C54.43560635 851.94331231 54.65547574 865.20569375 59 879 C59.44562851 880.45901338 59.44562851 880.45901338 59.90025961 881.94750178 C60.61446176 884.20631578 61.40420086 886.41242382 62.25 888.625 C62.54664551 889.41076416 62.84329102 890.19652832 63.14892578 891.00610352 C75.18774866 921.99399596 98.89857026 946.44829703 129.24316406 959.91064453 C144.58156 966.3994254 160.20763497 969.15367978 176.81826782 969.1398077 C177.99879309 969.14275912 179.17931836 969.14571055 180.39561713 969.14875141 C183.66937411 969.15591547 186.94309985 969.15864619 190.21686345 969.15947436 C193.77993098 969.16145041 197.34298709 969.16912872 200.90604782 969.17604691 C207.97188564 969.18884345 215.0377198 969.19623912 222.1035665 969.20194569 C230.56813547 969.20901343 239.03269357 969.22177135 247.49725558 969.23449489 C268.93008883 969.26632703 290.3629293 969.28618028 311.79577827 969.30378041 C317.60359334 969.30855072 323.41140818 969.31355899 329.21922302 969.31858563 C365.2918968 969.34963698 401.36457245 969.37624554 437.43725586 969.39300442 C445.7924805 969.39694144 454.14770511 969.40095333 462.50292969 969.4050293 C464.05992803 969.4057818 464.05992803 969.4057818 465.64838088 969.4065495 C499.28146099 969.4229573 532.91446822 969.46140066 566.5475125 969.5123164 C601.14386596 969.5645947 635.74018063 969.59732721 670.33657438 969.60458195 C675.2281875 969.60561046 680.11980054 969.60684677 685.01141357 969.60820198 C685.97406245 969.60846002 686.93671133 969.60871806 687.92853139 969.60898391 C703.38838064 969.61366947 718.84813349 969.63856524 734.30794673 969.67095341 C749.86485301 969.70306829 765.42165132 969.7129293 780.97858679 969.70052146 C790.20746322 969.69380999 799.43596736 969.70357473 808.66478523 969.73764846 C814.84682936 969.7587961 821.02862402 969.75769987 827.21067599 969.73931505 C830.72196406 969.72948285 834.23254779 969.72854181 837.74376607 969.75497787 C860.59881135 969.8956679 881.72866931 967.09922438 902 956 C903.04027344 955.44441406 904.08054687 954.88882813 905.15234375 954.31640625 C931.03560097 939.89240319 949.589981 918.10261885 961 891 C961.38800781 890.12601563 961.77601563 889.25203125 962.17578125 888.3515625 C969.46682817 870.50398046 969.59144758 851.17018143 969.50766886 832.21394356 C969.49646139 828.65151512 969.50882759 825.08914695 969.51797634 821.52672321 C969.53079495 815.3040113 969.52898631 809.08144231 969.51719666 802.85873032 C969.49971326 793.60518159 969.50535046 784.35174389 969.51536357 775.09818919 C969.53250393 758.56685323 969.52704794 742.03558386 969.51200638 725.50424933 C969.49893116 711.04013295 969.49376316 696.57603962 969.49632454 682.1119175 C969.49648495 681.15078567 969.49664537 680.18965383 969.49681065 679.1993968 C969.49747428 675.29745893 969.4981767 671.39552107 969.49893599 667.49358322 C969.50595188 630.93003154 969.49049505 594.36652041 969.46431253 557.80297904 C969.44119015 525.34088932 969.43581358 492.87884415 969.44604492 460.41674805 C969.44864708 452.10031225 969.45123214 443.78387646 969.45364285 435.46744061 C969.45408902 433.93150663 969.45408902 433.93150663 969.4545442 432.36454369 C969.462163 405.20911927 969.45574362 378.05369848 969.44494683 350.89827567 C969.44379906 347.97563946 969.44265588 345.05300324 969.44152 342.13036703 C969.44076476 340.19171312 969.43999911 338.25305922 969.43922299 336.31440532 C969.43357141 321.85832395 969.43488998 307.40225412 969.43945122 292.94617271 C969.44456422 276.50812059 969.43868268 260.07011159 969.41855692 243.63207021 C969.40759057 234.43933159 969.40475887 225.24667775 969.41384545 216.05393659 C969.41908063 209.90662673 969.41332639 203.75938915 969.39879211 197.61209444 C969.39081985 194.11448385 969.38741128 190.61704411 969.39736467 187.11943468 C969.47921728 149.34405122 959.64294697 117.89264295 932.875 90.375 C921.26193755 78.83109795 907.86099385 70.69535202 893 64 C891.9584375 63.51789062 890.916875 63.03578125 889.84375 62.5390625 C871.4509741 54.71739233 851.87845401 54.40542215 832.21394356 54.49233114 C828.65151512 54.50353861 825.08914695 54.49117241 821.52672321 54.48202366 C815.3040113 54.46920505 809.08144231 54.47101369 802.85873032 54.48280334 C793.60518159 54.50028674 784.35174389 54.49464954 775.09818919 54.48463643 C758.56685323 54.46749607 742.03558386 54.47295206 725.50424933 54.48799362 C711.04013295 54.50106884 696.57603962 54.50623684 682.1119175 54.50367546 C681.15078567 54.50351505 680.18965383 54.50335463 679.1993968 54.50318935 C675.29745893 54.50252572 671.39552107 54.5018233 667.49358322 54.50106401 C630.93003154 54.49404812 594.36652041 54.50950495 557.80297904 54.53568747 C525.34088932 54.55880985 492.87884415 54.56418642 460.41674805 54.55395508 C452.10031225 54.55135292 443.78387646 54.54876786 435.46744061 54.54635715 C434.44348462 54.54605971 433.41952864 54.54576226 432.36454369 54.5454558 C405.20911927 54.537837 378.05369848 54.54425638 350.89827567 54.55505317 C347.97563946 54.55620094 345.05300324 54.55734412 342.13036703 54.55848 C340.19171312 54.55923524 338.25305922 54.56000089 336.31440532 54.56077701 C321.85832395 54.56642859 307.40225412 54.56511002 292.94617271 54.56054878 C276.50812059 54.55543578 260.07011159 54.56131732 243.63207021 54.58144308 C234.43933159 54.59240943 225.24667775 54.59524113 216.05393659 54.58615455 C209.90662673 54.58091937 203.75938915 54.58667361 197.61209444 54.60120789 C194.11448385 54.60918015 190.61704411 54.61258872 187.11943468 54.60263533 C150.60402441 54.52351286 119.82158294 63.24107883 93 89 Z " fill="#F4F0E4" transform="translate(0,0)"/>
<path d="M0 0 C3.55701859 0.00676933 7.1139945 -0.00398587 10.67100369 -0.01239584 C16.8921024 -0.02471767 23.11312562 -0.02599467 29.33423238 -0.01984541 C38.58575713 -0.01072535 47.83721253 -0.01880964 57.08873198 -0.03013665 C73.61685096 -0.0497744 90.14493853 -0.05215646 106.6730664 -0.04694145 C121.14047687 -0.04237908 135.60787493 -0.04298992 150.07528501 -0.04878179 C152.0181339 -0.04953867 153.9609828 -0.05029465 155.90383169 -0.05104974 C158.8317755 -0.05219497 161.75971931 -0.05334485 164.68766311 -0.05450898 C191.89968367 -0.06520981 219.11170011 -0.0699436 246.32372194 -0.06203882 C247.86149929 -0.06159306 247.86149929 -0.06159306 249.43034284 -0.0611383 C257.75481252 -0.05868952 266.07928216 -0.05607785 274.40375178 -0.05345416 C306.86508012 -0.04335439 339.3263567 -0.05170371 371.78767782 -0.07494871 C408.28652954 -0.10104283 444.78535012 -0.11386337 481.28421151 -0.10676096 C485.17887394 -0.10604494 489.07353638 -0.10537055 492.96819883 -0.10472052 C494.4065681 -0.1044658 494.4065681 -0.1044658 495.87399533 -0.10420594 C510.32555273 -0.10190656 524.77708113 -0.10986278 539.22863203 -0.12301199 C555.67215717 -0.13794728 572.11561453 -0.13873432 588.55913825 -0.12094108 C597.75082881 -0.11140333 606.94236113 -0.11276105 616.134041 -0.13017577 C622.28720681 -0.14071332 628.44025286 -0.1364978 634.593407 -0.12069573 C638.09039199 -0.11211576 641.58706843 -0.10950989 645.08403684 -0.12496505 C664.19491438 -0.1919687 683.49895673 0.33543055 701.29378133 8.14160402 C702.11177206 8.48594484 702.92976278 8.83028566 703.7725411 9.18506106 C727.22396124 19.29775306 748.78693115 36.17956941 761.85628133 58.39160402 C762.47261434 59.43526125 762.47261434 59.43526125 763.10139852 60.50000246 C774.03976811 79.3668547 780.19705625 98.7577592 780.11355024 120.67920836 C780.11705631 121.86187105 780.12056239 123.04453374 780.12417471 124.26303469 C780.13183553 127.52415775 780.13065754 130.78513438 780.12561916 134.04625792 C780.12233377 137.60249941 780.13065061 141.15871772 780.13743752 144.71495165 C780.14771755 150.94088664 780.15058479 157.16679054 780.14852529 163.39273317 C780.14547007 172.65152404 780.15381088 181.91028062 780.16427454 191.16906481 C780.18360125 208.67047198 780.18924229 226.17186742 780.19038866 243.673284 C780.19130839 257.19255761 780.19542844 270.71182662 780.20178991 284.23109873 C780.20358506 288.12524105 780.20536468 292.01938338 780.20713966 295.91352572 C780.20780281 297.36575678 780.20780281 297.36575678 780.20847935 298.84732584 C780.22078549 326.07505649 780.22868072 353.30278554 780.22779279 380.53051909 C780.22776164 381.55676805 780.22773048 382.58301701 780.22769838 383.64036442 C780.22753217 388.84158559 780.22733408 394.04280676 780.22712896 399.24402792 C780.22706913 400.7934421 780.22706913 400.7934421 780.22700808 402.37415758 C780.22692721 404.46302025 780.22684361 406.55188292 780.2267573 408.64074559 C780.22553223 441.12827295 780.24053773 473.61575854 780.26790243 506.10327395 C780.29864942 542.62113815 780.31583331 579.1389749 780.31397598 615.65685286 C780.31382673 619.55382438 780.31372931 623.4507959 780.31366735 627.34776743 C780.31363239 628.7870157 780.31363239 628.7870157 780.31359672 630.25533969 C780.31353527 645.67090118 780.32628652 661.0864263 780.34353188 676.50197699 C780.36051783 692.00680365 780.36243909 707.51157732 780.34931324 723.01640816 C780.34194352 732.2169686 780.34552257 741.41736765 780.36519792 750.61791086 C780.37725167 756.77712535 780.37454734 762.93622372 780.36025692 769.09543302 C780.35253903 772.59594799 780.35080951 776.09615211 780.36717162 779.59664441 C780.43909209 798.71666264 779.91633144 818.02544232 772.10628133 835.82910402 C771.76194051 836.64709475 771.41759969 837.46508547 771.0628243 838.30786379 C765.6379327 850.88823428 758.50145861 861.80625494 749.85628133 872.39160402 C749.26073446 873.1418384 748.66518758 873.89207277 748.05159383 874.66504152 C734.09914067 891.55485325 713.33167327 902.66623034 692.85628133 909.39160402 C692.18047818 909.62278297 691.50467504 909.85396192 690.808393 910.0921463 C676.38388887 914.93281876 662.35858952 915.10747162 647.25728159 915.02153907 C643.68674003 915.00687429 640.11628864 915.0216356 636.54574978 915.03242405 C630.30561878 915.04731679 624.06571382 915.04387621 617.82558828 915.02800615 C608.5460266 915.00447169 599.26663339 915.00982125 589.98705623 915.02071505 C573.40912833 915.03925609 556.83130827 915.02962741 540.2533892 915.00823742 C525.7460735 914.98965217 511.23879396 914.98126102 496.73146635 914.98280581 C495.76771459 914.98289748 494.80396284 914.98298916 493.81100649 914.98308361 C489.89845457 914.98347679 485.98590266 914.98392643 482.07335076 914.984455 C445.40071541 914.98932175 408.72814416 914.96669275 372.05552874 914.93049877 C339.49976048 914.898505 306.94404695 914.88645605 274.38826376 914.89258059 C272.29760324 914.89296743 270.20694273 914.89335389 268.11628221 914.89373996 C267.08268111 914.8939313 266.04908001 914.89412265 264.98415766 914.89431979 C259.78074242 914.89527419 254.57732717 914.89618855 249.37391191 914.89705904 C248.34727466 914.89723283 247.32063741 914.89740663 246.26288994 914.89758569 C219.02930347 914.90194426 191.79572287 914.89191936 164.56214058 914.87722118 C163.59292557 914.87670104 162.62371056 914.8761809 161.6251254 914.875645 C160.17400859 914.87486598 160.17400859 914.87486598 158.69357629 914.87407123 C157.72797407 914.87355349 156.76237184 914.87303575 155.76750895 914.87250232 C153.82294603 914.87145423 151.87838311 914.87039402 149.93382021 914.8693216 C136.39700472 914.86195116 122.86019759 914.85985092 109.32338034 914.8613156 C91.8762445 914.86316402 74.42916015 914.85504744 56.98204111 914.82967414 C47.76307432 914.81654465 38.54418968 914.81147757 29.32521558 914.81831268 C23.15779508 914.82203988 16.9904492 914.81475403 10.82304863 914.7987203 C7.31556063 914.78989502 3.80824087 914.78557942 0.30074959 914.79464747 C-39.49981025 914.87050623 -71.81758074 905.02997637 -100.83512492 876.77051027 C-115.50137551 861.3238958 -125.63028083 841.91264374 -131.14371867 821.39160402 C-131.39140893 820.57687113 -131.63909919 819.76213823 -131.89429522 818.92271646 C-135.13350743 806.58340644 -134.57103177 793.99834858 -134.53532269 781.33405683 C-134.52856795 777.75422523 -134.53930138 774.17443657 -134.54771853 770.59461434 C-134.56005384 764.33044977 -134.56131148 758.06636013 -134.5551681 751.80218752 C-134.54605684 742.48675288 -134.55412529 733.17138724 -134.56545934 723.85595789 C-134.58510735 707.21500423 -134.5874772 690.57408175 -134.58226414 673.93311926 C-134.57770364 659.36767901 -134.57831028 644.80225109 -134.58410448 630.23681124 C-134.58486136 628.28160013 -134.58561734 626.32638902 -134.58637243 624.37117791 C-134.58751765 621.42469214 -134.58866753 618.47820637 -134.58983167 615.5317206 C-134.60053403 588.14394077 -134.60526469 560.75616505 -134.59736151 533.36838396 C-134.59706434 532.33635994 -134.59676716 531.30433591 -134.59646099 530.24103843 C-134.59401215 521.86076248 -134.59140052 513.48048659 -134.58877685 505.1002107 C-134.5786761 472.41769989 -134.58702764 439.73524047 -134.6102714 407.05273684 C-134.63635726 370.31477773 -134.64918831 333.57684956 -134.64208365 296.83888085 C-134.64136761 292.9198072 -134.64069322 289.00073354 -134.64004321 285.08165987 C-134.63978849 283.6342488 -134.63978849 283.6342488 -134.63952863 282.15759709 C-134.63722791 267.60637878 -134.64519186 253.05518924 -134.65833468 238.50397738 C-134.67325982 221.95015874 -134.67407053 205.39640742 -134.65626377 188.8425902 C-134.64671565 179.58584773 -134.64810513 170.32926237 -134.66549846 161.07253046 C-134.67601784 154.87976104 -134.67184571 148.68711081 -134.65601842 142.49435305 C-134.64741919 138.97225293 -134.64488097 135.45045972 -134.66028774 131.92837583 C-134.78504014 96.00358335 -125.502375 64.84366843 -100.14371867 38.39160402 C-99.33547648 37.50859621 -98.52723429 36.6255884 -97.69449992 35.71582277 C-71.3753394 7.90170247 -36.97270423 -0.10521577 0 0 Z M-88.14371867 43.39160402 C-89.48563273 44.62136965 -89.48563273 44.62136965 -90.85465617 45.87597902 C-100.71730794 55.21372777 -107.79035049 65.8258603 -113.45621867 78.14160402 C-113.75745646 78.78234865 -114.05869425 79.42309328 -114.36906046 80.08325441 C-121.9177065 97.44908377 -122.88004165 114.29595248 -122.77365371 132.99680513 C-122.75898903 136.56823529 -122.7737502 140.13957531 -122.78453869 143.71100278 C-122.79943143 149.95266411 -122.79599085 156.19409946 -122.7801208 162.43575533 C-122.75658644 171.7175391 -122.76193584 180.99915445 -122.7728297 190.2809537 C-122.79137053 206.8625621 -122.78174233 223.44406269 -122.76035206 240.02566226 C-122.74176733 254.53556877 -122.73337562 269.04543912 -122.73492045 283.55535753 C-122.73501212 284.51925441 -122.7351038 285.48315129 -122.73519825 286.47625717 C-122.73559144 290.38938032 -122.73604107 294.30250347 -122.73656964 298.21562661 C-122.74143633 334.89300724 -122.7188075 371.57032379 -122.68261342 408.2476845 C-122.65061711 440.81015661 -122.63857111 473.37257401 -122.64469523 505.93506106 C-122.64508207 508.02629268 -122.64546853 510.11752431 -122.6458546 512.20875594 C-122.64604594 513.24263798 -122.64623729 514.27652002 -122.64643443 515.34173182 C-122.64738882 520.54652282 -122.64830319 525.75131382 -122.64917368 530.95610483 C-122.64934748 531.9830061 -122.64952127 533.00990737 -122.64970033 534.06792687 C-122.6540584 561.30523236 -122.64403514 588.54253196 -122.62933583 615.77983327 C-122.62881569 616.74910936 -122.62829554 617.71838544 -122.62775964 618.71703353 C-122.6272403 619.68450846 -122.62672095 620.65198338 -122.62618587 621.64877574 C-122.62566813 622.61444471 -122.62515039 623.58011368 -122.62461696 624.57504535 C-122.62356888 626.51974581 -122.62250866 628.46444626 -122.62143624 630.4091467 C-122.61406463 643.94914401 -122.61196577 657.48913296 -122.61343025 671.02913203 C-122.61527827 688.479226 -122.60716878 705.92926847 -122.58178878 723.37934563 C-122.56865475 732.60074447 -122.56359489 741.82206116 -122.57042733 751.04346732 C-122.57415246 757.2112326 -122.5668769 763.37892321 -122.55083494 769.54666854 C-122.54200333 773.05517369 -122.53770313 776.56351049 -122.54676212 780.07201895 C-122.72757369 806.24265797 -122.72757369 806.24265797 -115.39371867 831.14160402 C-115.0437382 831.93107424 -114.69375773 832.72054445 -114.33317179 833.53393801 C-113.29818393 835.83435293 -112.2311218 838.11556033 -111.14371867 840.39160402 C-110.83885539 841.03178469 -110.5339921 841.67196535 -110.21989054 842.33154543 C-106.41729451 850.16429778 -101.84341997 856.83480478 -96.14371867 863.39160402 C-95.47856242 864.20113527 -94.81340617 865.01066652 -94.12809367 865.84472902 C-81.63222273 880.56208812 -65.09841495 890.65216215 -47.14371867 897.39160402 C-46.38832804 897.6880884 -45.63293742 897.98457277 -44.85465617 898.29004152 C-34.53678339 902.0795148 -23.60726365 902.69030075 -12.71465582 902.65166624 C-11.52885132 902.65547191 -10.34304681 902.65927758 -9.12130884 902.66319858 C-5.85604513 902.67167571 -2.59092539 902.67134755 0.67434199 902.66714322 C4.23679931 902.66476215 7.79923082 902.67396516 11.36167812 902.68162741 C17.59694147 902.69343746 23.83217561 902.69784163 30.06744962 902.69730623 C39.34004638 902.69651093 48.61260642 902.70708404 57.88519333 902.7197218 C76.37697001 902.74442483 94.86873767 902.75324045 113.36052857 902.75825829 C114.31746918 902.75851947 115.2744098 902.75878064 116.26034861 902.75904973 C117.69871854 902.75944014 117.69871854 902.75944014 119.16614645 902.75983844 C129.8046903 902.7629239 140.44323168 902.76942973 151.08177381 902.77605112 C183.22794509 902.79569459 215.37411371 902.81210168 247.52029138 902.81492766 C248.54788241 902.81502172 249.57547343 902.81511578 250.63420358 902.81521269 C254.7983763 902.81559116 258.96254903 902.81595516 263.12672176 902.81631567 C266.26077742 902.81658738 269.39483309 902.81686406 272.52888876 902.81714113 C273.56450141 902.81722916 274.60011406 902.81731718 275.66710892 902.81740787 C308.20179143 902.82031288 340.73641451 902.84240752 373.27107626 902.87866457 C409.8431417 902.91942014 446.41516665 902.94308643 482.98725604 902.94338717 C486.8895302 902.94348399 490.79180435 902.9436507 494.6940785 902.94386728 C495.65488142 902.9439114 496.61568434 902.94395551 497.6056025 902.94400096 C513.04456293 902.94511923 528.48346365 902.96250464 543.92240488 902.9856866 C559.4483831 903.00856625 574.97428093 903.01273038 590.50026983 902.99813731 C599.71441176 902.99000639 608.92829987 902.9956037 618.14241084 903.02131815 C624.30936358 903.03713447 630.47613722 903.03452771 636.64308586 903.01741143 C640.14887548 903.00818827 643.6541783 903.00649235 647.15992886 903.0273775 C681.95406893 903.19510103 711.04081895 893.98255742 736.35628133 869.26660402 C756.17894825 849.29076589 767.97871827 822.50101632 768.12407961 794.22563957 C768.11748488 792.60707495 768.11748488 792.60707495 768.11075693 790.95581205 C768.11396341 789.76929915 768.11716988 788.58278625 768.12047353 787.36031841 C768.12730148 784.09311886 768.12529864 780.82606843 768.1194178 777.55887168 C768.11522158 773.994442 768.12266401 770.43003253 768.12857031 766.86560788 C768.13730955 760.62711088 768.13865255 754.38864672 768.13506704 748.15014513 C768.12974932 738.8731766 768.13586601 729.59623973 768.14414997 720.31927464 C768.15937631 702.78635948 768.16109653 685.25345878 768.15862694 667.72053839 C768.15679334 654.18261894 768.15855531 640.64470423 768.16285139 627.10678537 C768.16345379 625.16090115 768.16405499 623.21501693 768.16465499 621.26913271 C768.16556225 618.33680152 768.16647092 615.40447032 768.16738734 612.47213913 C768.17581455 585.21617521 768.18015407 557.96021307 768.17598062 530.70424803 C768.17582425 529.67713812 768.17566787 528.6500282 768.17550675 527.59179375 C768.17470099 522.38613174 768.17385521 517.18046975 768.17299345 511.97480775 C768.17282236 510.94096653 768.17265128 509.90712531 768.172475 508.84195556 C768.17212835 506.75128015 768.17177982 504.66060473 768.17142942 502.56992932 C768.16607052 470.02862463 768.17400839 437.48734702 768.19246297 404.94604738 C768.21317751 368.37699086 768.2239069 331.80795112 768.21988749 295.2388884 C768.21949214 291.34012791 768.2191306 287.44136741 768.21879011 283.54260691 C768.21869938 282.58264775 768.21860864 281.6226886 768.21851516 280.63363978 C768.21734919 266.14221233 768.22399732 251.65080182 768.23460203 237.15937861 C768.24664818 220.68149824 768.24821956 204.20365521 768.23581186 187.7257743 C768.22917986 178.50556943 768.23082225 169.28545383 768.24440037 160.06525609 C768.25264131 153.90446812 768.24995196 147.74374706 768.23842511 141.58296454 C768.23216529 138.07422699 768.23057657 134.56566373 768.24228844 131.05693621 C768.2523823 127.27164678 768.24398206 123.48682553 768.23101144 119.70155485 C768.24197546 118.07947848 768.24197546 118.07947848 768.25316098 116.42463289 C768.20071237 109.04069904 766.92266678 102.46866638 764.85628133 95.39160402 C764.56833396 94.36325956 764.56833396 94.36325956 764.27456946 93.31414045 C756.28001898 65.63830245 738.29004466 41.47674979 712.94124227 27.32226809 C690.65143564 15.28991033 670.99085729 11.92919764 645.88721664 11.99379864 C642.32031421 11.99964523 638.75345907 11.98803156 635.1865698 11.97873695 C628.94502338 11.96486734 622.70354943 11.96207858 616.46199041 11.96669634 C607.18002163 11.97354558 597.89812589 11.96324894 588.61616726 11.94973878 C571.07092421 11.92485679 553.52571164 11.92030845 535.98045378 11.92220475 C522.42785436 11.92357907 508.87526548 11.91975409 495.32266813 11.91227968 C493.37393873 11.91122933 491.42520933 11.91018172 489.47647993 11.90913682 C488.50909804 11.90861748 487.54171615 11.90809813 486.54501965 11.90756305 C485.57584169 11.90704291 484.60666373 11.90652277 483.60811674 11.90598686 C482.63728479 11.90546287 481.66645284 11.90493888 480.66620174 11.90439901 C453.36773468 11.88981961 426.0692715 11.88153143 398.77080064 11.88614901 C397.74211799 11.88632096 396.71343534 11.88649292 395.65358049 11.88667008 C390.44010787 11.88755894 385.22663526 11.88850375 380.01316266 11.88946809 C378.46011668 11.88975464 378.46011668 11.88975464 376.87569604 11.89004698 C374.78193852 11.89043407 372.688181 11.8908244 370.59442349 11.89121796 C338.02600006 11.89718606 305.45764772 11.88175649 272.88924032 11.84961184 C236.27540407 11.8135048 199.6616129 11.79420637 163.04775774 11.79915054 C159.1407068 11.7996205 155.23365585 11.80003076 151.3266049 11.80040224 C149.88364668 11.80055582 149.88364668 11.80055582 148.41153778 11.8007125 C133.9128222 11.80190551 119.41415545 11.78996391 104.91545301 11.77125795 C88.41697323 11.74998186 71.91859562 11.74621085 55.42011122 11.76555755 C46.19729148 11.77585395 36.97472123 11.77249012 27.75192424 11.74902669 C21.57793935 11.73471802 15.40413766 11.73885298 9.2301649 11.75747246 C5.7212028 11.76755145 2.21272362 11.77015007 -1.29620697 11.75015177 C-35.39463296 11.59461952 -63.1721073 19.4505671 -88.14371867 43.39160402 Z " fill="#DE894A" transform="translate(189.14371866639704,54.608395976014435)"/>
<path d="M0 0 C3.93528887 1.61042327 7.19526827 3.95871296 10.625 6.44921875 C11.38047119 6.99304199 12.13594238 7.53686523 12.91430664 8.09716797 C35.9846145 24.88932648 63.12189394 47.8406298 69.625 77.07421875 C70.65981245 88.57896664 70.82316922 100.54710876 65.625 111.07421875 C65.23570312 111.904375 64.84640625 112.73453125 64.4453125 113.58984375 C59.01641753 123.80516092 50.11239806 133.24673162 39.08203125 137.12109375 C26.94025174 140.46865782 15.21551926 142.34753884 2.625 143.07421875 C2.37606543 138.52139697 2.19560699 133.97259925 2.07568359 129.41455078 C2.02566834 127.86795017 1.95762237 126.321816 1.87060547 124.77685547 C1.16718109 111.95798055 1.16718109 111.95798055 4.71313477 107.37597656 C7.25486241 105.34524035 9.80523064 103.68956401 12.625 102.07421875 C15.26877118 99.91869532 17.90148627 97.7507028 20.53125 95.578125 C22.8839508 93.67398206 25.25333548 91.81537819 27.65625 89.9765625 C28.34436768 89.44385742 29.03248535 88.91115234 29.74145508 88.36230469 C31.10329013 87.30982436 32.47277963 86.26716163 33.8503418 85.23535156 C35.96090619 83.6392436 35.96090619 83.6392436 38.625 81.07421875 C38.625 79.75421875 38.625 78.43421875 38.625 77.07421875 C36.40632566 76.61494584 36.40632566 76.61494584 33.625 77.07421875 C31.23809485 78.81577547 29.15858526 80.52241673 27 82.51171875 C25.76134647 83.61432667 24.52175151 84.71587784 23.28125 85.81640625 C22.66765625 86.36651367 22.0540625 86.91662109 21.421875 87.48339844 C18.83617671 89.77258459 16.17770366 91.95568593 13.5 94.13671875 C12.22769531 95.17505859 12.22769531 95.17505859 10.9296875 96.234375 C9.78886719 97.14509766 9.78886719 97.14509766 8.625 98.07421875 C7.90570312 98.65042969 7.18640625 99.22664063 6.4453125 99.8203125 C4.625 101.07421875 4.625 101.07421875 2.625 101.07421875 C2.295 87.54421875 1.965 74.01421875 1.625 60.07421875 C-0.025 60.40421875 -1.675 60.73421875 -3.375 61.07421875 C-3.705 74.27421875 -4.035 87.47421875 -4.375 101.07421875 C-8.21927832 99.15207959 -11.10627835 96.91708395 -14.3125 94.13671875 C-14.87517578 93.6574292 -15.43785156 93.17813965 -16.01757812 92.68432617 C-19.02162535 90.12246737 -21.99399196 87.52912222 -24.94140625 84.90234375 C-25.51705322 84.39695068 -26.0927002 83.89155762 -26.68579102 83.37084961 C-27.79051396 82.40024536 -28.88651933 81.41960458 -29.97241211 80.42797852 C-32.44417575 78.26908635 -33.938717 77.11986249 -37.25 76.7734375 C-38.301875 76.92232422 -38.301875 76.92232422 -39.375 77.07421875 C-39.07418395 80.28292324 -38.69637726 81.7490307 -36.3984375 84.07421875 C-35.52445312 84.73421875 -34.65046875 85.39421875 -33.75 86.07421875 C-28.29300709 90.31617808 -23.09074855 94.76849471 -17.94287109 99.38085938 C-17.05462646 100.16299805 -17.05462646 100.16299805 -16.1484375 100.9609375 C-15.55313232 101.49235352 -14.95782715 102.02376953 -14.34448242 102.57128906 C-12.39236526 104.17271083 -12.39236526 104.17271083 -9.9309082 105.20996094 C-7.09960804 106.58369162 -5.38262305 107.63062172 -3.375 110.07421875 C-2.24172216 115.73246879 -2.52497188 121.21312322 -2.8125 126.94921875 C-2.85768091 128.51160386 -2.89873929 130.07411396 -2.93554688 131.63671875 C-3.03438254 135.45231816 -3.1894275 139.26189336 -3.375 143.07421875 C-11.87896367 143.1743707 -11.87896367 143.1743707 -16.00390625 142.375 C-16.8040918 142.22047363 -17.60427734 142.06594727 -18.42871094 141.90673828 C-19.25661133 141.73513184 -20.08451172 141.56352539 -20.9375 141.38671875 C-21.80793945 141.20737793 -22.67837891 141.02803711 -23.57519531 140.84326172 C-46.19030989 136.00427406 -46.19030989 136.00427406 -54.375 128.07421875 C-55.03757812 127.4503125 -55.70015625 126.82640625 -56.3828125 126.18359375 C-66.45675748 115.84152095 -71.17853802 103.12131708 -71.75 88.88671875 C-71.24960753 63.83766044 -54.65405203 43.86406098 -37.46484375 27.2265625 C-31.02022345 21.12433265 -24.19790937 15.56640476 -17.05126953 10.30908203 C-15.90171329 9.46223445 -14.75707933 8.60867619 -13.61669922 7.74951172 C-11.88116286 6.44511712 -10.13107981 5.16327397 -8.375 3.88671875 C-7.34375 3.13003906 -6.3125 2.37335938 -5.25 1.59375 C-2.375 0.07421875 -2.375 0.07421875 0 0 Z " fill="#E18A48" transform="translate(512.375,285.92578125)"/>
<path d="M0 0 C9.32421798 5.73183948 16.03101114 14.04407647 22.65625 22.58984375 C23.53361816 23.71483276 23.53361816 23.71483276 24.42871094 24.86254883 C24.96915039 25.57435303 25.50958984 26.28615723 26.06640625 27.01953125 C26.55375244 27.65874512 27.04109863 28.29795898 27.54321289 28.95654297 C28.59375 30.71484375 28.59375 30.71484375 28.59375 33.71484375 C24.99339097 35.88816385 21.38225584 38.04192452 17.76000977 40.1784668 C16.52999753 40.90759693 15.30305713 41.64193567 14.0793457 42.3815918 C12.31727929 43.44541346 10.54492624 44.48986415 8.76953125 45.53125 C7.70645752 46.16490479 6.64338379 46.79855957 5.5480957 47.45141602 C0.84369442 49.46325608 -1.47114783 48.08740424 -6.10742188 46.24023438 C-7.5319806 45.62184924 -8.95440331 44.99852725 -10.375 44.37109375 C-11.13292847 44.0419397 -11.89085693 43.71278564 -12.67175293 43.37365723 C-15.90105618 41.97105071 -19.12532055 40.55701723 -22.35009766 39.14404297 C-24.71085996 38.11159657 -27.07409617 37.0849755 -29.4375 36.05859375 C-30.16159058 35.7387854 -30.88568115 35.41897705 -31.63171387 35.08947754 C-35.19872582 33.54107724 -38.54828196 32.27566057 -42.40625 31.71484375 C-42.73625 33.03484375 -43.06625 34.35484375 -43.40625 35.71484375 C-39.49960126 38.21075822 -35.45565861 40.04831073 -31.171875 41.78125 C-29.7798892 42.35467519 -28.38796385 42.92824714 -26.99609375 43.50195312 C-24.81558827 44.39523469 -22.63421989 45.28630949 -20.45166016 46.17456055 C-18.33514676 47.03769451 -16.22213005 47.90896525 -14.109375 48.78125 C-13.4521344 49.0458754 -12.7948938 49.31050079 -12.11773682 49.58314514 C-7.51949534 51.48835308 -7.51949534 51.48835308 -6.40625 53.71484375 C-10.00960683 55.75794208 -13.61408743 57.79905017 -17.21875 59.83984375 C-18.22357422 60.40960938 -19.22839844 60.979375 -20.26367188 61.56640625 C-26.9436912 65.34673873 -33.65651899 69.06044057 -40.40625 72.71484375 C-40.40625 74.36484375 -40.40625 76.01484375 -40.40625 77.71484375 C-34.09436199 77.3386385 -29.44464216 74.12433835 -24.15625 70.96484375 C-17.35261544 66.94764708 -10.52325376 63.15236041 -3.40625 59.71484375 C-3.83034781 69.61933432 -5.22447467 79.08093019 -7.12207031 88.80493164 C-7.30092773 89.7561792 -7.47978516 90.70742676 -7.6640625 91.6875 C-7.8305127 92.53578369 -7.99696289 93.38406738 -8.16845703 94.25805664 C-8.42982095 96.95836989 -8.06125185 99.09454368 -7.40625 101.71484375 C-6.08625 101.38484375 -4.76625 101.05484375 -3.40625 100.71484375 C-2.58761239 96.09258324 -1.76977865 91.47018141 -0.95263672 86.84765625 C-0.67550499 85.28056145 -0.39816712 83.71350309 -0.12060547 82.14648438 C0.14895734 80.62447629 0.41777676 79.10233635 0.68583679 77.58006287 C0.9523542 76.07738689 1.22319296 74.57547089 1.49836731 73.07435608 C2.10122374 69.74859083 2.61655016 66.48592514 2.9519043 63.11889648 C3.73420448 55.66899169 3.73420448 55.66899169 6.1953125 52.93701172 C8.28291922 51.46680141 10.34621553 50.3625273 12.65625 49.27734375 C13.81000122 48.67442505 13.81000122 48.67442505 14.98706055 48.05932617 C16.49921685 47.27120201 18.01967999 46.49876794 19.54882812 45.74414062 C22.08359012 44.46828621 24.48541134 43.00584253 26.90625 41.52734375 C29.10268475 40.19522612 30.02995552 39.65086854 32.5925293 39.94165039 C34.59375 40.71484375 34.59375 40.71484375 35.62695312 42.33447266 C35.99723633 43.37740479 35.99723633 43.37740479 36.375 44.44140625 C36.65786865 45.21871094 36.9407373 45.99601562 37.23217773 46.796875 C37.51649658 47.63605469 37.80081543 48.47523438 38.09375 49.33984375 C38.39418213 50.19707031 38.69461426 51.05429687 39.00415039 51.9375 C45.18176085 69.86272484 48.44165374 83.82642383 40.203125 101.73828125 C32.77393277 116.01015054 21.59496338 124.31231647 6.37890625 129.46484375 C-22.23687874 136.70679988 -54.64034827 124.20837317 -79.40625 110.71484375 C-80.53546875 110.10898437 -81.6646875 109.503125 -82.828125 108.87890625 C-85.36419554 107.50788334 -87.89018517 106.12213425 -90.40625 104.71484375 C-92.18872319 73.37302358 -82.19662523 36.37137863 -62.10546875 11.9140625 C-45.96133869 -5.49834619 -21.39632252 -11.42758135 0 0 Z " fill="#B2A058" transform="translate(457.40625,437.28515625)"/>
<path d="M0 0 C21.8264659 14.7322322 30.66290604 41.18565666 35.81054688 65.88769531 C38.00225013 77.79232971 40.1426395 89.75354167 39.81054688 101.88769531 C23.14909342 111.08542075 6.20246737 118.81406207 -12.18945312 123.88769531 C-13.38054687 124.25894531 -14.57164062 124.63019531 -15.79882812 125.01269531 C-23.58877854 127.33044844 -30.92907988 128.24828111 -39.06445312 128.26269531 C-39.91974609 128.26430664 -40.77503906 128.26591797 -41.65625 128.26757812 C-57.56380591 127.99076451 -70.48288338 122.81327669 -82.22851562 112.01269531 C-92.24525136 101.42231391 -96.9014817 87.24750819 -96.61132812 72.89941406 C-96.06875016 65.91286423 -93.61483825 59.40851646 -91.18945312 52.88769531 C-90.63644531 51.39302734 -90.63644531 51.39302734 -90.07226562 49.86816406 C-88.34816737 45.41090229 -86.41485306 41.11595518 -84.18945312 36.88769531 C-78.05546703 37.82259465 -73.35588602 40.92431035 -68.06445312 44.01269531 C-67.06285156 44.56957031 -66.06125 45.12644531 -65.02929688 45.70019531 C-60.71501827 48.21347976 -57.75410454 49.97198721 -55.10351562 54.27050781 C-54.06330544 58.38689513 -53.26711705 62.43363433 -52.68945312 66.63769531 C-52.44224192 68.30959762 -52.19484013 69.98147176 -51.94726562 71.65332031 C-51.76212402 72.93819336 -51.76212402 72.93819336 -51.57324219 74.24902344 C-50.93551955 78.63356939 -50.2503473 83.0104741 -49.56445312 87.38769531 C-49.44134766 88.19432617 -49.31824219 89.00095703 -49.19140625 89.83203125 C-48.70589845 92.95564357 -48.19114583 95.8826172 -47.18945312 98.88769531 C-45.86945312 98.88769531 -44.54945313 98.88769531 -43.18945312 98.88769531 C-42.97766182 92.14453357 -43.7279885 86.15866487 -45.12695312 79.57519531 C-46.66224402 71.99553093 -47.86892467 64.62845742 -48.18945312 56.88769531 C-42.81631496 58.42776676 -38.26757093 60.89764481 -33.43945312 63.63769531 C-32.64394043 64.08218018 -31.84842773 64.52666504 -31.02880859 64.98461914 C-25.95503304 67.83402583 -20.9824385 70.80131973 -16.13476562 74.02441406 C-13.73324836 75.09014763 -12.60931437 74.78293546 -10.18945312 73.88769531 C-9.69445312 71.90769531 -9.69445312 71.90769531 -9.18945312 69.88769531 C-9.91092529 69.61223877 -10.63239746 69.33678223 -11.37573242 69.05297852 C-14.09725634 67.92587798 -16.62384788 66.6524987 -19.20898438 65.24316406 C-20.14935547 64.73076172 -21.08972656 64.21835937 -22.05859375 63.69042969 C-23.02990234 63.15740234 -24.00121094 62.624375 -25.00195312 62.07519531 C-25.96166016 61.55376953 -26.92136719 61.03234375 -27.91015625 60.49511719 C-33.45208279 57.46502629 -38.95929616 54.4342988 -44.18945312 50.88769531 C-44.18945312 50.22769531 -44.18945312 49.56769531 -44.18945312 48.88769531 C-39.10100492 46.74694879 -34.01065198 44.61082275 -28.91845703 42.47900391 C-27.18549974 41.7527411 -25.45307503 41.02520613 -23.72119141 40.29638672 C-21.23543132 39.25057466 -18.74780791 38.20931411 -16.25976562 37.16894531 C-15.48263214 36.84083862 -14.70549866 36.51273193 -13.90481567 36.17468262 C-8.41719654 33.88769531 -8.41719654 33.88769531 -6.18945312 33.88769531 C-7.17945313 31.41269531 -7.17945313 31.41269531 -8.18945312 28.88769531 C-13.55518086 29.47569848 -17.82116832 31.31977006 -22.65820312 33.55566406 C-24.29720017 34.29141647 -25.93653349 35.02642014 -27.57617188 35.76074219 C-30.14082399 36.9180593 -32.70235651 38.0811344 -35.25830078 39.25756836 C-37.7382893 40.39524108 -40.2282021 41.50822907 -42.72070312 42.61816406 C-43.48024292 42.97533005 -44.23978271 43.33249603 -45.02233887 43.70048523 C-48.59007265 45.27047648 -50.45982671 46.02674917 -54.36767578 45.28198242 C-57.22894137 43.86818351 -60.03705505 42.4356987 -62.80664062 40.84863281 C-63.825 40.26855469 -64.84335937 39.68847656 -65.89257812 39.09082031 C-66.93929687 38.48753906 -67.98601563 37.88425781 -69.06445312 37.26269531 C-70.134375 36.65167969 -71.20429687 36.04066406 -72.30664062 35.41113281 C-74.93701067 33.90806422 -77.56446239 32.40013246 -80.18945312 30.88769531 C-78.50639967 26.37158977 -76.13355529 22.92899663 -73.12695312 19.20019531 C-72.63598145 18.58660156 -72.14500977 17.97300781 -71.63916016 17.34082031 C-70.16660679 15.51407233 -68.68138508 13.69863757 -67.18945312 11.88769531 C-66.39410156 10.9221875 -65.59875 9.95667969 -64.77929688 8.96191406 C-47.78290197 -10.79227331 -21.93799652 -13.96394659 0 0 Z " fill="#9D8D4E" transform="translate(617.189453125,440.1123046875)"/>
<path d="M0 0 C4.32141599 1.4915335 7.82994302 3.77172833 11.5 6.4375 C12.11456055 6.88287109 12.72912109 7.32824219 13.36230469 7.78710938 C36.05232995 24.43499861 62.59444985 47.20495679 69 76 C70.03481245 87.50474789 70.19816922 99.47289001 65 110 C64.61070312 110.83015625 64.22140625 111.6603125 63.8203125 112.515625 C58.39141753 122.73094217 49.48739806 132.17251287 38.45703125 136.046875 C26.31525174 139.39443907 14.59051926 141.27332009 2 142 C1.75106543 137.44717822 1.57060699 132.8983805 1.45068359 128.34033203 C1.40066834 126.79373142 1.33262237 125.24759725 1.24560547 123.70263672 C0.54218109 110.8837618 0.54218109 110.8837618 4.08813477 106.30175781 C6.62986241 104.2710216 9.18023064 102.61534526 12 101 C14.64377118 98.84447657 17.27648627 96.67648405 19.90625 94.50390625 C22.2589508 92.59976331 24.62833548 90.74115944 27.03125 88.90234375 C27.71936768 88.36963867 28.40748535 87.83693359 29.11645508 87.28808594 C30.47829013 86.23560561 31.84777963 85.19294288 33.2253418 84.16113281 C35.33590619 82.56502485 35.33590619 82.56502485 38 80 C38 78.68 38 77.36 38 76 C35.78132566 75.54072709 35.78132566 75.54072709 33 76 C30.61309485 77.74155672 28.53358526 79.44819798 26.375 81.4375 C25.13634647 82.54010792 23.89675151 83.64165909 22.65625 84.7421875 C21.73585938 85.56734863 21.73585938 85.56734863 20.796875 86.40917969 C18.21117671 88.69836584 15.55270366 90.88146718 12.875 93.0625 C11.60269531 94.10083984 11.60269531 94.10083984 10.3046875 95.16015625 C9.54414062 95.76730469 8.78359375 96.37445313 8 97 C7.28070312 97.57621094 6.56140625 98.15242188 5.8203125 98.74609375 C4 100 4 100 2 100 C1.970271 98.15269287 1.970271 98.15269287 1.93994141 96.26806641 C1.86400818 91.70942339 1.77527237 87.15110473 1.68261719 82.59277344 C1.64427651 80.61790356 1.6094327 78.64296264 1.578125 76.66796875 C1.53258453 73.83307455 1.47457285 70.9986717 1.4140625 68.1640625 C1.39673569 66.83430893 1.39673569 66.83430893 1.37905884 65.47769165 C1.35918915 64.65699188 1.33931946 63.83629211 1.31884766 62.99072266 C1.30552399 62.26680328 1.29220032 61.54288391 1.2784729 60.79702759 C1.14212079 58.74846505 1.14212079 58.74846505 -1 57 C-1.24723816 54.64024353 -1.24723816 54.64024353 -1.24291992 51.64819336 C-1.24599655 50.53041 -1.24907318 49.41262665 -1.25224304 48.26097107 C-1.24505753 47.04949905 -1.23787201 45.83802704 -1.23046875 44.58984375 C-1.23001053 43.3520668 -1.22955231 42.11428986 -1.2290802 40.83900452 C-1.2252786 37.54641953 -1.21225824 34.25402641 -1.19561768 30.96148682 C-1.18216164 27.60648353 -1.18534184 24.2515137 -1.18554688 20.89648438 C-1.18063168 18.35676883 -1.17480335 15.81705485 -1.16796875 13.27734375 C-1.16685593 12.0638475 -1.1657431 10.85035126 -1.16459656 9.6000824 C-1.15821671 8.4854512 -1.15183685 7.37082001 -1.14526367 6.22241211 C-1.14145187 5.23583115 -1.13764008 4.24925018 -1.13371277 3.23277283 C-1 1 -1 1 0 0 Z " fill="#998A49" transform="translate(513,287)"/>
<path d="M0 0 C9.32421798 5.73183948 16.03101114 14.04407647 22.65625 22.58984375 C23.53361816 23.71483276 23.53361816 23.71483276 24.42871094 24.86254883 C24.96915039 25.57435303 25.50958984 26.28615723 26.06640625 27.01953125 C26.55375244 27.65874512 27.04109863 28.29795898 27.54321289 28.95654297 C28.59375 30.71484375 28.59375 30.71484375 28.59375 33.71484375 C24.99339097 35.88816385 21.38225584 38.04192452 17.76000977 40.1784668 C16.52999753 40.90759693 15.30305713 41.64193567 14.0793457 42.3815918 C12.31727929 43.44541346 10.54492624 44.48986415 8.76953125 45.53125 C7.70645752 46.16490479 6.64338379 46.79855957 5.5480957 47.45141602 C0.84369442 49.46325608 -1.47114783 48.08740424 -6.10742188 46.24023438 C-7.5319806 45.62184924 -8.95440331 44.99852725 -10.375 44.37109375 C-11.13292847 44.0419397 -11.89085693 43.71278564 -12.67175293 43.37365723 C-15.90105618 41.97105071 -19.12532055 40.55701723 -22.35009766 39.14404297 C-24.71085996 38.11159657 -27.07409617 37.0849755 -29.4375 36.05859375 C-30.16159058 35.7387854 -30.88568115 35.41897705 -31.63171387 35.08947754 C-35.19872582 33.54107724 -38.54828196 32.27566057 -42.40625 31.71484375 C-42.73625 33.03484375 -43.06625 34.35484375 -43.40625 35.71484375 C-39.49960126 38.21075822 -35.45565861 40.04831073 -31.171875 41.78125 C-29.7798892 42.35467519 -28.38796385 42.92824714 -26.99609375 43.50195312 C-24.81558827 44.39523469 -22.63421989 45.28630949 -20.45166016 46.17456055 C-18.33514676 47.03769451 -16.22213005 47.90896525 -14.109375 48.78125 C-13.4521344 49.0458754 -12.7948938 49.31050079 -12.11773682 49.58314514 C-7.51949534 51.48835308 -7.51949534 51.48835308 -6.40625 53.71484375 C-7.04014648 54.07199463 -7.67404297 54.42914551 -8.32714844 54.79711914 C-13.38747033 57.64940919 -18.44427314 60.50767652 -23.49609375 63.375 C-26.82818929 65.26485308 -30.16535456 67.13921176 -33.53515625 68.9609375 C-34.58574219 69.53972656 -35.63632812 70.11851562 -36.71875 70.71484375 C-37.60175781 71.18921875 -38.48476563 71.66359375 -39.39453125 72.15234375 C-41.60429459 73.57371441 -41.60429459 73.57371441 -42.23120117 76.1262207 C-43.713329 79.3913363 -45.06284361 80.06508816 -48.21875 81.6953125 C-49.20383545 82.21504639 -50.1889209 82.73478027 -51.20385742 83.27026367 C-52.78904175 84.07814331 -52.78904175 84.07814331 -54.40625 84.90234375 C-56.59037144 86.04717091 -58.77396015 87.19301496 -60.95703125 88.33984375 C-62.0445166 88.90574219 -63.13200195 89.47164062 -64.25244141 90.0546875 C-69.4889938 92.81119441 -74.63531865 95.72552545 -79.78320312 98.64331055 C-83.25694476 100.59334278 -86.64870936 102.35045521 -90.40625 103.71484375 C-92.3305895 72.87195791 -81.82948866 35.92445686 -62.10546875 11.9140625 C-45.96133869 -5.49834619 -21.39632252 -11.42758135 0 0 Z " fill="#D16F37" transform="translate(457.40625,437.28515625)"/>
<path d="M0 0 C21.8264659 14.7322322 30.66290604 41.18565666 35.81054688 65.88769531 C38.00225013 77.79232971 40.1426395 89.75354167 39.81054688 101.88769531 C29.36894764 96.42071165 19.07639189 90.70844754 8.82055664 84.90087891 C2.56884682 81.3754378 -3.73292114 78.02321306 -10.18945312 74.88769531 C-9.85945312 73.23769531 -9.52945313 71.58769531 -9.18945312 69.88769531 C-9.91092529 69.61223877 -10.63239746 69.33678223 -11.37573242 69.05297852 C-14.09725634 67.92587798 -16.62384788 66.6524987 -19.20898438 65.24316406 C-20.14935547 64.73076172 -21.08972656 64.21835937 -22.05859375 63.69042969 C-23.02990234 63.15740234 -24.00121094 62.624375 -25.00195312 62.07519531 C-25.96166016 61.55376953 -26.92136719 61.03234375 -27.91015625 60.49511719 C-33.45208279 57.46502629 -38.95929616 54.4342988 -44.18945312 50.88769531 C-44.18945312 50.22769531 -44.18945312 49.56769531 -44.18945312 48.88769531 C-39.10100492 46.74694879 -34.01065198 44.61082275 -28.91845703 42.47900391 C-27.18549974 41.7527411 -25.45307503 41.02520613 -23.72119141 40.29638672 C-21.23543132 39.25057466 -18.74780791 38.20931411 -16.25976562 37.16894531 C-15.48263214 36.84083862 -14.70549866 36.51273193 -13.90481567 36.17468262 C-8.41719654 33.88769531 -8.41719654 33.88769531 -6.18945312 33.88769531 C-7.17945313 31.41269531 -7.17945313 31.41269531 -8.18945312 28.88769531 C-13.55518086 29.47569848 -17.82116832 31.31977006 -22.65820312 33.55566406 C-24.29720017 34.29141647 -25.93653349 35.02642014 -27.57617188 35.76074219 C-30.14082399 36.9180593 -32.70235651 38.0811344 -35.25830078 39.25756836 C-37.7382893 40.39524108 -40.2282021 41.50822907 -42.72070312 42.61816406 C-43.48024292 42.97533005 -44.23978271 43.33249603 -45.02233887 43.70048523 C-48.59007265 45.27047648 -50.45982671 46.02674917 -54.36767578 45.28198242 C-57.22894137 43.86818351 -60.03705505 42.4356987 -62.80664062 40.84863281 C-63.825 40.26855469 -64.84335937 39.68847656 -65.89257812 39.09082031 C-66.93929687 38.48753906 -67.98601563 37.88425781 -69.06445312 37.26269531 C-70.134375 36.65167969 -71.20429687 36.04066406 -72.30664062 35.41113281 C-74.93701067 33.90806422 -77.56446239 32.40013246 -80.18945312 30.88769531 C-78.50639967 26.37158977 -76.13355529 22.92899663 -73.12695312 19.20019531 C-72.63598145 18.58660156 -72.14500977 17.97300781 -71.63916016 17.34082031 C-70.16660679 15.51407233 -68.68138508 13.69863757 -67.18945312 11.88769531 C-65.99642578 10.43943359 -65.99642578 10.43943359 -64.77929688 8.96191406 C-47.78290197 -10.79227331 -21.93799652 -13.96394659 0 0 Z " fill="#E08846" transform="translate(617.189453125,440.1123046875)"/>
<path d="M0 0 C4.29 0 8.58 0 13 0 C13.33 1.65 13.66 3.3 14 5 C14.42667969 4.6390625 14.85335938 4.278125 15.29296875 3.90625 C20.66810098 -0.08353887 25.22653852 -0.75060957 31.859375 -0.49609375 C36.315523 0.20780028 39.78947401 1.79849234 43 5 C43.495 6.485 43.495 6.485 44 8 C44.61488281 7.50628906 45.22976563 7.01257813 45.86328125 6.50390625 C46.67152344 5.86324219 47.47976563 5.22257813 48.3125 4.5625 C49.51326172 3.60537109 49.51326172 3.60537109 50.73828125 2.62890625 C55.8763066 -1.07153688 61.92812924 -0.53937938 68 0 C73.65073939 1.53271689 76.91780507 4.48845585 80.08984375 9.31640625 C82.35626303 13.50879557 82.12855163 17.54695388 82.09765625 22.16796875 C82.0962413 22.96278152 82.09482635 23.7575943 82.09336853 24.57649231 C82.08777378 27.11353325 82.07522228 29.65048575 82.0625 32.1875 C82.05748432 33.90820185 82.05292153 35.62890508 82.04882812 37.34960938 C82.03780607 41.5664403 82.02054506 45.78320516 82 50 C77.71 50 73.42 50 69 50 C68.98541748 49.08710205 68.97083496 48.1742041 68.95581055 47.23364258 C68.89459205 43.83201389 68.82041127 40.43117319 68.73754883 37.0300293 C68.70438741 35.56073578 68.67632822 34.09131756 68.65356445 32.62182617 C68.61985481 30.50385632 68.56753567 28.38702005 68.51171875 26.26953125 C68.48553467 24.99698486 68.45935059 23.72443848 68.43237305 22.41333008 C67.97584202 18.80928701 67.17461685 16.87782628 65 14 C61.55258453 12.27629226 57.76964661 12.49693328 54 13 C51.49839182 14.87620613 50.38054348 16.23891303 49 19 C48.84479443 21.32273159 48.74980833 23.64959313 48.68359375 25.9765625 C48.66281265 26.66181 48.64203156 27.3470575 48.62062073 28.05307007 C48.55519815 30.24361069 48.49627446 32.43427189 48.4375 34.625 C48.39430782 36.1093875 48.3506933 37.59376278 48.30664062 39.078125 C48.19872862 42.71862818 48.09960219 46.35922195 48 50 C43.38 50 38.76 50 34 50 C33.970271 48.52406372 33.970271 48.52406372 33.93994141 47.01831055 C33.86386013 43.36717161 33.775147 39.71642991 33.68261719 36.06567383 C33.64433779 34.48567549 33.60948303 32.90559031 33.578125 31.32543945 C33.53245124 29.05388355 33.47446216 26.78292491 33.4140625 24.51171875 C33.40251129 23.80536789 33.39096008 23.09901703 33.37905884 22.3712616 C33.26928952 18.72258607 33.07857636 17.11786454 31 14 C27.35593938 12.78531313 23.75412801 12.07865723 20 13 C16.61212387 15.70167548 15.15230423 17.19043621 14.34057617 21.50512695 C14.32486572 22.81956787 14.30915527 24.13400879 14.29296875 25.48828125 C14.27784744 26.19147995 14.26272614 26.89467865 14.24714661 27.6191864 C14.20438505 29.85062003 14.19544407 32.08069809 14.1875 34.3125 C14.16434629 35.83141595 14.13897911 37.35029988 14.11132812 38.86914062 C14.04444468 42.58015828 14.02337618 46.28743765 14 50 C9.38 50 4.76 50 0 50 C0 33.5 0 17 0 0 Z " fill="#896944" transform="translate(392,650)"/>
<path d="M0 0 C25.29849627 7.99878926 55.95329292 40.75487846 68.15234375 63.25390625 C76.24409725 79.20136652 79.94479573 96.72897009 74.59375 114.15234375 C70.74621932 125.62487879 64.88434781 136.02111188 54.65625 142.83984375 C51.46875 142.96484375 51.46875 142.96484375 48.65625 142.83984375 C48.65625 138.83984375 48.65625 138.83984375 50.81640625 136.53515625 C51.77417969 135.68695313 52.73195313 134.83875 53.71875 133.96484375 C62.62199201 125.63965983 68.38415657 114.11955156 69.02734375 101.8359375 C69.5738797 77.25724621 59.36897405 60.22930539 42.6796875 42.609375 C33.58664794 33.18965141 24.12952689 24.78466688 13.48632812 17.16162109 C11.8172547 15.9561297 10.18009401 14.70676421 8.546875 13.453125 C7.67546875 12.79699219 6.8040625 12.14085937 5.90625 11.46484375 C5.18953125 10.92085938 4.4728125 10.376875 3.734375 9.81640625 C0.82740415 8.45034852 -0.31668091 8.75499818 -3.34375 9.83984375 C-5.95855062 11.30773559 -8.39589469 12.98561407 -10.84375 14.71484375 C-11.54862549 15.20734619 -12.25350098 15.69984863 -12.97973633 16.20727539 C-19.78580974 21.03300941 -26.1218991 26.29062538 -32.34375 31.83984375 C-32.89160156 32.32066406 -33.43945312 32.80148437 -34.00390625 33.296875 C-50.59077292 47.88254198 -67.70672064 66.96082849 -70.34375 89.83984375 C-71.27001991 105.44847705 -67.91521829 118.7236555 -57.81640625 130.8828125 C-56.256182 132.55148836 -54.66444294 134.19173359 -53.03125 135.7890625 C-51.34375 137.83984375 -51.34375 137.83984375 -51.34375 141.83984375 C-52.33375 142.16984375 -53.32375 142.49984375 -54.34375 142.83984375 C-65.51804747 136.56095279 -71.47383095 125.64475538 -75.3203125 113.84375 C-80.32045781 95.12825283 -77.00325484 78.0031534 -67.4609375 61.359375 C-57.80010472 45.08458747 -20.86273515 -1.42562024 0 0 Z " fill="#FBFAF7" transform="translate(512.34375,278.16015625)"/>
<path d="M0 0 C0.92039062 -0.00708984 1.84078125 -0.01417969 2.7890625 -0.02148438 C17.76636042 0.11563173 29.97418835 6.88401289 40.6953125 17.07421875 C53.87432208 30.5882879 60.49725329 46.67779907 66 64.4375 C66.3091333 65.4277417 66.3091333 65.4277417 66.62451172 66.43798828 C69.42952255 75.70554809 70.84067719 85.19122297 72.25 94.75 C72.4255542 95.93078125 72.6011084 97.1115625 72.78198242 98.328125 C73.25073985 101.69390274 73.64073151 105.05844791 74 108.4375 C74.20979492 109.96769775 74.20979492 109.96769775 74.42382812 111.52880859 C74.67155911 114.41428936 74.73538544 116.63491954 74 119.4375 C71.44230065 122.30528217 68.42612847 123.77490196 65 125.4375 C64.13036621 125.91010254 63.26073242 126.38270508 62.36474609 126.86962891 C50.44278883 133.26058327 38.1145451 138.40748627 25.25 142.5625 C23.55750122 143.11127808 23.55750122 143.11127808 21.83081055 143.67114258 C10.25967346 147.24584764 -1.03194943 148.78951977 -13.125 148.75 C-14.61580078 148.77416992 -14.61580078 148.77416992 -16.13671875 148.79882812 C-33.39792406 148.81008054 -48.31188743 141.70954651 -60.8125 130.0625 C-67.93168026 122.53456298 -73.10223658 112.36310355 -74.4375 102.0625 C-73.92203602 98.96971613 -72.79757217 96.98406058 -71 94.4375 C-69 95.4375 -69 95.4375 -67.73828125 99.0859375 C-67.26151463 100.6610032 -66.78635351 102.23655545 -66.3125 103.8125 C-62.16376016 116.80753525 -56.07205479 127.18833428 -43.96875 134.19140625 C-23.50530162 144.70171699 -1.46703332 143.20315752 20 136.4375 C34.64912073 131.6029133 49.68047593 125.69301795 62.90625 117.67578125 C65 116.4375 65 116.4375 67 116.4375 C64.98344124 98.83579843 62.84918537 81.52546725 58 64.4375 C57.81356934 63.75880859 57.62713867 63.08011719 57.43505859 62.38085938 C51.67658579 41.80829223 40.9204852 23.16627513 22 12.4375 C9.01024646 5.89666891 -5.44649294 5.31203825 -19.2265625 9.78125 C-19.81179688 9.9978125 -20.39703125 10.214375 -21 10.4375 C-21 8.4575 -21 6.4775 -21 4.4375 C-13.84660751 1.0227637 -7.89492442 -0.17138842 0 0 Z " fill="#FCFBF8" transform="translate(590,425.5625)"/>
<path d="M0 0 C1 1 1 1 1.0625 3.5625 C1.041875 4.366875 1.02125 5.17125 1 6 C-0.43791516 5.85831863 -1.8753237 5.71148957 -3.3125 5.5625 C-4.11300781 5.48128906 -4.91351563 5.40007812 -5.73828125 5.31640625 C-8 5 -8 5 -11 4 C-27.564475 2.39140317 -39.92878306 5.43225342 -53 16 C-75.45620288 34.76874521 -82.75668086 70.33281274 -86 98 C-86.33886438 103.01380968 -86.28536041 107.98241271 -86 113 C-58.48237793 128.46580852 -23.81962767 143.85784053 8.375 136.9375 C23.55063106 132.37404782 34.38162952 124.98216444 42 111 C45.10428985 104.50474446 47.51026014 98.04240659 49 91 C50.9375 91.3125 50.9375 91.3125 53 92 C55.21604615 98.64813844 53.73095284 103.78659254 50.9375 109.875 C50.62022949 110.57753906 50.30295898 111.28007813 49.97607422 112.00390625 C43.50794328 125.84180576 33.05383387 135.17153884 19 141 C18.02160156 141.41507813 17.04320312 141.83015625 16.03515625 142.2578125 C-1.22036064 148.35803232 -21.76740871 146.21262085 -39 141 C-39.73089844 140.78569336 -40.46179688 140.57138672 -41.21484375 140.35058594 C-59.84616343 134.80478151 -76.96212348 126.24049547 -94 117 C-94.3027652 107.17695116 -93.50980982 97.68969865 -92 88 C-91.82259277 86.824375 -91.82259277 86.824375 -91.64160156 85.625 C-87.47586613 58.82861532 -79.14783825 31.08081878 -59 12 C-58.41992188 11.401875 -57.83984375 10.80375 -57.2421875 10.1875 C-42.07677178 -4.44445889 -19.02218797 -7.44736604 0 0 Z " fill="#FBFBF8" transform="translate(454,429)"/>
<path d="M0 0 C5.80932451 4.38181955 9.41601054 10.36066294 10.5859375 17.5546875 C10.94098397 25.92194928 8.66745339 33.37654004 3.078125 39.69140625 C-3.35442596 45.49304603 -11.6375011 47.58045756 -20.16015625 47.19140625 C-28.04645044 46.09577059 -33.56569376 43.18005559 -38.453125 36.86328125 C-43.66855324 29.27193569 -43.89747513 21.93191406 -42.859375 12.81640625 C-40.34725175 5.55916132 -34.14288196 0.82671663 -27.796875 -3.05859375 C-18.85201539 -6.45844989 -7.93789157 -5.05290156 0 0 Z " fill="#876742" transform="translate(619.859375,654.18359375)"/>
<path d="M0 0 C1.20269531 -0.01417969 2.40539062 -0.02835938 3.64453125 -0.04296875 C10.3816897 0.39528081 15.70135803 2.79829888 20.55712891 7.51904297 C26.18631178 14.74078984 24.72247789 24.03688793 24.5 32.6875 C24.47488817 34.38538387 24.45208008 36.08330346 24.43164062 37.78125 C24.37686688 41.91755668 24.29075713 46.05213117 24.1875 50.1875 C19.8975 50.1875 15.6075 50.1875 11.1875 50.1875 C10.6925 48.2075 10.6925 48.2075 10.1875 46.1875 C8.7953125 47.1465625 8.7953125 47.1465625 7.375 48.125 C1.83559849 51.70931863 -3.35954424 51.9798138 -9.8125 51.1875 C-14.39300886 49.3194295 -18.33829149 46.55375031 -20.8125 42.1875 C-22.01893566 38.56819302 -22.13518559 35.99518995 -21.8125 32.1875 C-18.89579099 26.4662631 -14.89116678 23.21372226 -8.8125 21.1875 C-7.33126453 21.1068378 -5.84667796 21.07988807 -4.36328125 21.08984375 C-3.51572266 21.09306641 -2.66816406 21.09628906 -1.79492188 21.09960938 C-0.91384766 21.10798828 -0.03277344 21.11636719 0.875 21.125 C2.21401367 21.13176758 2.21401367 21.13176758 3.58007812 21.13867188 C5.78261987 21.15045017 7.98502599 21.16689836 10.1875 21.1875 C9.24836927 16.2458119 9.24836927 16.2458119 6.0625 12.75 C-1.3260712 11.30440998 -6.00010837 12.41635764 -12.8125 15.1875 C-13.8025 15.1875 -14.7925 15.1875 -15.8125 15.1875 C-18.8125 8.5625 -18.8125 8.5625 -18.8125 5.1875 C-17.37578432 4.53992375 -15.93809584 3.89450547 -14.5 3.25 C-13.69949219 2.89035156 -12.89898438 2.53070312 -12.07421875 2.16015625 C-7.86209447 0.34872456 -4.57149394 0.02434235 0 0 Z " fill="#886945" transform="translate(718.8125,649.8125)"/>
<path d="M0 0 C4.77829765 4.14059251 8.21149195 8.89803136 10 15 C10 18.3 10 21.6 10 25 C-2.21 25 -14.42 25 -27 25 C-23.62417638 31.78382647 -23.62417638 31.78382647 -18 35 C-11.90694189 35.58965078 -8.48068837 34.52954848 -3 32 C1 32 1 32 3.8125 34.25 C6 37 6 37 5.90234375 39.00390625 C4.69089409 41.68377973 3.33329304 42.33169885 0.75 43.6875 C-0.01828125 44.10386719 -0.7865625 44.52023437 -1.578125 44.94921875 C-7.95346042 47.7152917 -15.77736507 48.16924227 -22.46875 46.31640625 C-29.64128708 43.35650653 -35.15886907 39.43153967 -38.375 32.25 C-38.92749954 30.83752293 -39.47119537 29.42151781 -40 28 C-40.33 27.34 -40.66 26.68 -41 26 C-41.88335863 17.96483402 -40.33513833 10.56431785 -35.25 4.1875 C-25.9896991 -5.7161965 -11.47335171 -6.87246067 0 0 Z " fill="#896944" transform="translate(372,654)"/>
<path d="M0 0 C4.29 0 8.58 0 13 0 C13.33 12.21 13.66 24.42 14 37 C22.13038875 29.65869039 22.13038875 29.65869039 29.75 21.8125 C34.1110879 17.89870317 39.17255057 18.44345321 44.71777344 18.6418457 C46.47996172 18.73754429 48.24035067 18.8654637 50 19 C46.28245198 23.52134218 42.35952636 27.77415761 38.25 31.9375 C37.76619873 32.43419189 37.28239746 32.93088379 36.78393555 33.44262695 C35.56151636 34.66847329 34.28448257 35.83934827 33 37 C32.34 37 31.68 37 31 37 C40.64629543 51.22832979 40.64629543 51.22832979 50.70703125 65.1640625 C52 67 52 67 52 68 C46.66986253 68.90284637 41.22976295 69.74366391 36 68 C31.58606944 64.5269209 28.78366222 59.54051177 26.02099609 54.72851562 C24.95125967 52.8411497 24.95125967 52.8411497 23.20703125 50.640625 C22 49 22 49 22 47 C18.76782402 48.95844831 16.26202664 50.95367659 14 54 C13.01358958 58.68672722 12.89396254 63.22168684 13 68 C8.71 68 4.42 68 0 68 C0 45.56 0 23.12 0 0 Z " fill="#856540" transform="translate(641,632)"/>
<path d="M0 0 C4.29 0 8.58 0 13 0 C13.04898437 2.10761719 13.09796875 4.21523438 13.1484375 6.38671875 C13.20252219 8.43878991 13.25980006 10.49074897 13.31738281 12.54272461 C13.35555149 13.9635373 13.39042513 15.38444263 13.421875 16.80541992 C13.46779065 18.85368855 13.52573805 20.90132608 13.5859375 22.94921875 C13.6173584 24.17987061 13.6487793 25.41052246 13.68115234 26.6784668 C13.99112127 29.90750755 14.48219369 32.14589889 16 35 C19.56913557 37.37942371 21.5869766 37.53203299 25.7734375 37.45703125 C28.40365189 36.91714514 29.27996743 36.214322 31 34.1875 C33.76828236 29.77554999 34.1541845 26.70360358 34.31640625 21.58203125 C34.37924805 19.70161133 34.37924805 19.70161133 34.44335938 17.78320312 C34.48267578 16.47287109 34.52199219 15.16253906 34.5625 13.8125 C34.60570992 12.47720022 34.649325 11.14191348 34.69335938 9.80664062 C34.79956434 6.53788766 34.90029785 3.26895777 35 0 C39.29 0 43.58 0 48 0 C48 16.17 48 32.34 48 49 C43.71 49 39.42 49 35 49 C34.67 47.35 34.34 45.7 34 44 C33.278125 44.61875 32.55625 45.2375 31.8125 45.875 C26.15449994 50.14993338 20.96728553 50.85898041 14 50 C8.64886782 48.30776162 5.08877518 45.75196182 2 41 C1.6405127 40.46342773 1.28102539 39.92685547 0.91064453 39.37402344 C-0.45552671 35.81245529 -0.24451082 32.27456895 -0.1953125 28.515625 C-0.1924826 27.70003113 -0.18965271 26.88443726 -0.18673706 26.04412842 C-0.17556558 23.44593472 -0.15046675 20.84808905 -0.125 18.25 C-0.11496627 16.48568207 -0.10584111 14.72135872 -0.09765625 12.95703125 C-0.07563619 8.63788727 -0.04112733 4.31900259 0 0 Z " fill="#876641" transform="translate(489,651)"/>
<path d="M0 0 C18.48 0 36.96 0 56 0 C56 3.63 56 7.26 56 11 C49.07 11 42.14 11 35 11 C35 28.16 35 45.32 35 63 C30.38 63 25.76 63 21 63 C21 45.84 21 28.68 21 11 C14.07 11 7.14 11 0 11 C0 7.37 0 3.74 0 0 Z " fill="#886945" transform="translate(274,637)"/>
<path d="M0 0 C6.83980498 0.33730545 11.58545271 3.27627163 17.375 6.75 C20.05899967 8.32791335 22.74342047 9.90446138 25.43652344 11.46679688 C27.10594585 12.46527047 28.74766585 13.5120999 30.35253906 14.61132812 C34.34556493 17.26731552 34.34556493 17.26731552 38.96899414 17.89453125 C41.43895474 17.13408922 43.66270823 16.10764228 46 15 C47.24345094 14.4630815 48.48927074 13.93163121 49.73681641 13.40429688 C54.87376036 11.2247166 59.99010889 8.99822006 65.09350586 6.74121094 C67.29368595 5.77031296 69.49968183 4.81383805 71.70703125 3.859375 C72.37998734 3.55739197 73.05294342 3.25540894 73.74629211 2.9442749 C76.48930493 1.76821354 78.45333075 0.92848029 81.45581055 1.32128906 C81.96539307 1.54526367 82.47497559 1.76923828 83 2 C83.495 4.475 83.495 4.475 84 7 C70 13 70 13 56 19 C55.38109894 19.28015961 54.76219788 19.56031921 54.12454224 19.84896851 C51.23216716 21.14315151 49.20737069 22 46 22 C48.59379962 24.96241 51.58934406 26.58753063 55.0234375 28.46875 C55.6066275 28.79033081 56.1898175 29.11191162 56.79067993 29.4432373 C58.64949917 30.46701498 60.51207005 31.48372497 62.375 32.5 C64.22996201 33.51771979 66.08411947 34.53688664 67.93789673 35.5567627 C69.62439113 36.48368294 71.31287572 37.40697939 73.00146484 38.33007812 C75.70283577 39.83450551 78.35942323 41.39178777 81 43 C80.67 44.65 80.34 46.3 80 48 C78.4453125 48.73828125 78.4453125 48.73828125 76 49 C73.48834339 47.8284959 71.23498724 46.61428778 68.875 45.1875 C67.45623848 44.35850274 66.03694554 43.53041444 64.6171875 42.703125 C63.87178711 42.26419922 63.12638672 41.82527344 62.35839844 41.37304688 C58.27537163 38.99593064 54.13554785 36.72158727 50 34.4375 C48.45819627 33.5822783 46.91651744 32.72683138 45.375 31.87109375 C44.26125 31.25363281 43.1475 30.63617188 42 30 C42.18175781 30.95253662 42.36351562 31.90507324 42.55078125 32.88647461 C43.22995689 36.45769834 43.89825895 40.03088865 44.56347656 43.60473633 C44.85157948 45.14434673 45.1425367 46.6834261 45.43652344 48.22192383 C48.43927701 63.95573974 48.43927701 63.95573974 48 72 C45.525 72.495 45.525 72.495 43 73 C41.07362242 69.64767539 40.41805771 66.52174308 39.78125 62.72265625 C39.57113281 61.48580078 39.36101563 60.24894531 39.14453125 58.97460938 C38.93183594 57.68361328 38.71914063 56.39261719 38.5 55.0625 C38.28730469 53.80630859 38.07460938 52.55011719 37.85546875 51.25585938 C36.11089387 40.89008778 36.11089387 40.89008778 35.5390625 36.30029297 C35.39210938 35.14803223 35.24515625 33.99577148 35.09375 32.80859375 C34.97708984 31.78435303 34.86042969 30.7601123 34.74023438 29.70483398 C33.60845129 25.56927173 31.2784724 23.82485238 27.76098633 21.55541992 C26.55865356 20.89956909 26.55865356 20.89956909 25.33203125 20.23046875 C24.43806641 19.73353516 23.54410156 19.23660156 22.62304688 18.72460938 C20.76931658 17.71079024 18.91515907 16.69775182 17.06054688 15.68554688 C4.25161727 8.56132476 4.25161727 8.56132476 0 4 C0 2.68 0 1.36 0 0 Z " fill="#F9F8F3" transform="translate(527,467)"/>
<path d="M0 0 C2.475 0.495 2.475 0.495 5 1 C5 14.53 5 28.06 5 42 C11.23108889 37.35442257 11.23108889 37.35442257 17.2890625 32.52734375 C18.00320313 31.93759766 18.71734375 31.34785156 19.453125 30.74023438 C20.16984375 30.14533203 20.8865625 29.55042969 21.625 28.9375 C22.34945312 28.33873047 23.07390625 27.73996094 23.8203125 27.12304688 C24.531875 26.53458984 25.2434375 25.94613281 25.9765625 25.33984375 C26.66121582 24.77467041 27.34586914 24.20949707 28.05126953 23.62719727 C29.29784884 22.58629886 30.53434874 21.53313153 31.75732422 20.46459961 C35.70744568 17.03179938 35.70744568 17.03179938 38.875 16.6875 C39.57625 16.790625 40.2775 16.89375 41 17 C41.495 19.475 41.495 19.475 42 22 C34.29827561 28.61427161 26.49507099 35.05978703 18.484375 41.296875 C17.94224365 41.73894287 17.4001123 42.18101074 16.84155273 42.63647461 C15 44 15 44 12.61352539 45.27172852 C9.76264942 46.96511445 7.98979733 48.32807709 6 51 C4.74000459 56.82453575 4.82868605 62.50379615 4.9375 68.4375 C4.93442219 70.04363281 4.92729967 71.64976326 4.91601562 73.25585938 C4.89725912 77.1720981 4.93362172 81.08431656 5 85 C1.25 86.125 1.25 86.125 -1 85 C-1 73.78 -1 62.56 -1 51 C-2.65 50.34 -4.3 49.68 -6 49 C-8.24382519 47.23497084 -10.3736416 45.45789445 -12.5 43.5625 C-13.73789244 42.48002396 -14.9761834 41.3980035 -16.21484375 40.31640625 C-16.84116699 39.7661377 -17.46749023 39.21586914 -18.11279297 38.64892578 C-21.06837659 36.06651805 -24.06381647 33.53209603 -27.0625 31 C-27.58585937 30.55599854 -28.10921875 30.11199707 -28.6484375 29.65454102 C-31.7251241 27.05038816 -34.84121543 24.50384392 -38 22 C-37.67 20.35 -37.34 18.7 -37 17 C-33.77054109 16.64053726 -32.38877707 16.71936399 -29.7109375 18.65234375 C-28.55464844 19.78349609 -28.55464844 19.78349609 -27.375 20.9375 C-19.36442838 28.5195715 -10.71169213 35.24936588 -2 42 C-2.01571045 40.19813232 -2.01571045 40.19813232 -2.03173828 38.35986328 C-2.06787287 33.91327888 -2.09087657 29.46670752 -2.10986328 25.02001953 C-2.11993582 23.09356506 -2.13359443 21.16712592 -2.15087891 19.24072266 C-2.17507241 16.47554748 -2.18647036 13.710574 -2.1953125 10.9453125 C-2.20563507 10.0806839 -2.21595764 9.2160553 -2.22659302 8.32522583 C-2.22699106 6.21546479 -2.12265243 4.10619282 -2 2 C-1.34 1.34 -0.68 0.68 0 0 Z " fill="#F8F7F3" transform="translate(510,345)"/>
<path d="M0 0 C4.62 0 9.24 0 14 0 C14 22.44 14 44.88 14 68 C9.38 68 4.76 68 0 68 C0 45.56 0 23.12 0 0 Z " fill="#8B6C47" transform="translate(552,632)"/>
<path d="M0 0 C4.31164921 2.25892926 6.89515529 4.91655411 8.859375 9.31640625 C9.63749932 15.8331974 9.72148191 20.82615623 5.859375 26.31640625 C2.82828448 29.73860523 0.14603761 31.94696246 -4.4375 32.6875 C-10.92704297 32.86317234 -15.27526793 31.73334331 -20.140625 27.31640625 C-24.05761767 22.95681553 -24.78057245 18.4340914 -24.52734375 12.6796875 C-23.73440858 7.83397257 -21.08292539 5.14652802 -17.515625 2.00390625 C-12.36899329 -1.65291102 -6.02789854 -1.9249676 0 0 Z " fill="#D6773B" transform="translate(519.140625,441.68359375)"/>
<path d="M0 0 C4.3604287 2.22135047 7.20212362 4.40542702 9 9 C9.93790979 15.8085303 9.12932045 20.49423941 5 26 C0.61809702 28.76898976 -3.98014571 28.77593962 -9 28 C-12.39413071 26.32371504 -14.43803636 23.94512067 -16.375 20.6875 C-17.60782254 15.38636308 -17.84389514 11.03507045 -15.3125 6.1875 C-11.22086994 0.5476856 -6.9636422 -1.22887804 0 0 Z " fill="#F1EEDF" transform="translate(607,661)"/>
<path d="M0 0 C3.62416894 1.64734952 6.12851416 3.45402683 8 7 C8.5412081 11.96107425 8.14534237 15.06832204 5 19 C2.0291121 21.31069059 -1.25161104 21.47087809 -4.96484375 21.39453125 C-8.61727597 20.68647817 -10.43783808 18.62465368 -13 16 C-14.57455739 12.85088521 -14.34799118 10.47991184 -14 7 C-10.36664874 0.89922363 -6.93956752 -0.47047915 0 0 Z " fill="#957754" transform="translate(362,726)"/>
<path d="M0 0 C10.9947644 -0.48328635 10.9947644 -0.48328635 15.25 1.5625 C17.5907625 4.82284776 17.37692389 7.0799915 17 11 C15.02 11.99 15.02 11.99 13 13 C14.32 15.64 15.64 18.28 17 21 C15.68 21 14.36 21 13 21 C12.54625 20.195625 12.0925 19.39125 11.625 18.5625 C10.1964441 15.66192308 10.1964441 15.66192308 6.8125 15.1875 C5.884375 15.125625 4.95625 15.06375 4 15 C4 16.98 4 18.96 4 21 C2.68 21 1.36 21 0 21 C0 14.07 0 7.14 0 0 Z " fill="#9E7D5A" transform="translate(508,726)"/>
<path d="M0 0 C10.98214286 -0.53571429 10.98214286 -0.53571429 14.6875 1.5625 C17 4 17 4 17.5625 7.5625 C17 11 17 11 15.6875 12.875 C12.75520708 14.82986195 10.23175012 15.11855328 6.8125 15.0625 C4.9253125 15.0315625 4.9253125 15.0315625 3 15 C3 16.98 3 18.96 3 21 C2.01 21 1.02 21 0 21 C0 14.07 0 7.14 0 0 Z " fill="#997853" transform="translate(597,726)"/>
<path d="M0 0 C0.99 0 1.98 0 3 0 C4.82421875 2.5546875 4.82421875 2.5546875 6.6875 5.875 C7.31011719 6.96554687 7.93273437 8.05609375 8.57421875 9.1796875 C10 12 10 12 10 14 C10.66 14 11.32 14 12 14 C12.226875 13.175 12.45375 12.35 12.6875 11.5 C14.23771321 7.36609811 16.11059793 3.37811399 19 0 C19.99 0 20.98 0 22 0 C22 6.93 22 13.86 22 21 C21.01 21 20.02 21 19 21 C18.505 14.565 18.505 14.565 18 8 C16.35 11.3 14.7 14.6 13 18 C11.68 18 10.36 18 9 18 C7.35 15.03 5.7 12.06 4 9 C3.67 12.96 3.34 16.92 3 21 C2.01 21 1.02 21 0 21 C0 14.07 0 7.14 0 0 Z " fill="#94744F" transform="translate(454,726)"/>
<path d="M0 0 C1.32 0 2.64 0 4 0 C5.50626117 3.12202006 7.00393243 6.24808399 8.5 9.375 C8.92925781 10.26445313 9.35851562 11.15390625 9.80078125 12.0703125 C10.40986328 13.34648438 10.40986328 13.34648438 11.03125 14.6484375 C11.40830078 15.43395996 11.78535156 16.21948242 12.17382812 17.02880859 C13 19 13 19 13 21 C11.68 21 10.36 21 9 21 C8.505 18.525 8.505 18.525 8 16 C6.20739868 16.05995322 4.41574205 16.1487241 2.625 16.25 C1.62726563 16.29640625 0.62953125 16.3428125 -0.3984375 16.390625 C-3.1526477 16.72160885 -3.1526477 16.72160885 -4.3515625 19.046875 C-4.56554687 19.69140625 -4.77953125 20.3359375 -5 21 C-6.32 20.67 -7.64 20.34 -9 20 C-6.03 13.4 -3.06 6.8 0 0 Z " fill="#997854" transform="translate(490,726)"/>
<path d="M0 0 C1.11761719 0.02707031 1.11761719 0.02707031 2.2578125 0.0546875 C4.08909701 0.10164351 5.91971649 0.17338348 7.75 0.25 C8.046875 5.8984375 8.046875 5.8984375 5.375 9.0625 C1.90890111 11.95091574 0.24082179 12.4219679 -4.1875 12.5 C-5.06277344 12.52578125 -5.93804688 12.5515625 -6.83984375 12.578125 C-9.25 12.25 -9.25 12.25 -11.0390625 10.88671875 C-12.25 9.25 -12.25 9.25 -12.6875 6.8125 C-11.48458879 -0.23312283 -6.0503678 -0.27793209 0 0 Z " fill="#EFEADA" transform="translate(722.25,678.75)"/>
<path d="M0 0 C1.32 0 2.64 0 4 0 C6.97 6.93 9.94 13.86 13 21 C11.68 21 10.36 21 9 21 C8.78601563 20.35546875 8.57203125 19.7109375 8.3515625 19.046875 C7.1526477 16.72160885 7.1526477 16.72160885 4.3984375 16.390625 C2.90183594 16.32101562 2.90183594 16.32101562 1.375 16.25 C0.37210938 16.19328125 -0.63078125 16.1365625 -1.6640625 16.078125 C-2.82035156 16.03945313 -2.82035156 16.03945313 -4 16 C-4.33 17.65 -4.66 19.3 -5 21 C-6.32 21 -7.64 21 -9 21 C-7.50640515 16.15713185 -5.54966433 11.68649104 -3.375 7.125 C-2.88773438 6.09246094 -2.88773438 6.09246094 -2.390625 5.0390625 C-1.59676528 3.35794781 -0.79880442 1.67877079 0 0 Z " fill="#93734F" transform="translate(646,726)"/>
<path d="M0 0 C1.86621094 0.25219727 1.86621094 0.25219727 4 1 C5.18847656 2.73413086 5.18847656 2.73413086 6.140625 4.96484375 C6.66269531 6.16463867 6.66269531 6.16463867 7.1953125 7.38867188 C7.54335938 8.22978516 7.89140625 9.07089844 8.25 9.9375 C8.61351562 10.77474609 8.97703125 11.61199219 9.3515625 12.47460938 C12 18.66259398 12 18.66259398 12 21 C10.68 20.67 9.36 20.34 8 20 C7.67 18.68 7.34 17.36 7 16 C5.20739868 16.05995322 3.41574205 16.1487241 1.625 16.25 C0.62726563 16.29640625 -0.37046875 16.3428125 -1.3984375 16.390625 C-4.1526477 16.72160885 -4.1526477 16.72160885 -5.3515625 19.046875 C-5.56554687 19.69140625 -5.77953125 20.3359375 -6 21 C-6.99 21 -7.98 21 -9 21 C-6.76686274 13.55620912 -3.59727921 6.88023305 0 0 Z " fill="#92734E" transform="translate(406,726)"/>
<path d="M0 0 C2.7844834 1.37263266 3.89251586 2.56828753 6 5 C6.33 6.65 6.66 8.3 7 10 C-0.92 10 -8.84 10 -17 10 C-16.0570981 5.28549049 -15.66535232 3.78364092 -11.94140625 0.95703125 C-8.06001175 -0.95633224 -4.17514051 -0.84585505 0 0 Z " fill="#F5F2E3" transform="translate(362,661)"/>
<path d="M0 0 C2.375 1.5 2.375 1.5 4 4 C4.58428517 6.9631605 4.39344818 8.90159561 4 12 C1.80287161 14.70415801 0.44058039 14.94492745 -3 15.375 C-6.44058039 14.94492745 -7.80287161 14.70415801 -10 12 C-10.5659239 7.54334931 -10.82483134 5.26897129 -8.375 1.5 C-5.27859404 -0.45562482 -3.60146865 -0.60024477 0 0 Z " fill="#F4EEDD" transform="translate(362,729)"/>
<path d="M0 0 C1.32 0 2.64 0 4 0 C4.33 2.97 4.66 5.94 5 9 C5.61488281 8.3503125 6.22976563 7.700625 6.86328125 7.03125 C7.67152344 6.1959375 8.47976563 5.360625 9.3125 4.5 C10.11300781 3.6646875 10.91351562 2.829375 11.73828125 1.96875 C14 0 14 0 17 0 C15.88408263 2.60380719 14.93328633 4.06099536 12.8125 6 C12.214375 6.66 11.61625 7.32 11 8 C11.37330795 11.49416242 13.09696567 13.9062482 15.0625 16.75 C15.61035156 17.54921875 16.15820312 18.3484375 16.72265625 19.171875 C17.14417969 19.77515625 17.56570313 20.3784375 18 21 C13.44310722 20.45623632 13.44310722 20.45623632 11.41796875 18.37109375 C11.01191406 17.73300781 10.60585938 17.09492187 10.1875 16.4375 C9.76855469 15.79683594 9.34960938 15.15617188 8.91796875 14.49609375 C8.61503906 14.00238281 8.31210937 13.50867188 8 13 C5.21611025 14.70625501 4.14615794 15.47626739 3.25 18.6875 C3.1675 19.450625 3.085 20.21375 3 21 C2.01 21 1.02 21 0 21 C0 14.07 0 7.14 0 0 Z " fill="#93724E" transform="translate(532,726)"/>
<path d="M0 0 C4.95 0 9.9 0 15 0 C15 0.99 15 1.98 15 3 C11.04 3 7.08 3 3 3 C3 4.98 3 6.96 3 9 C6.63 9 10.26 9 14 9 C14 9.99 14 10.98 14 12 C10.37 12 6.74 12 3 12 C3 13.98 3 15.96 3 18 C6.96 18 10.92 18 15 18 C15 18.99 15 19.98 15 21 C10.05 21 5.1 21 0 21 C0 14.07 0 7.14 0 0 Z " fill="#8B6A45" transform="translate(687,726)"/>
<path d="M0 0 C4.95 0 9.9 0 15 0 C15 0.99 15 1.98 15 3 C11.04 3 7.08 3 3 3 C3 4.98 3 6.96 3 9 C6.63 9 10.26 9 14 9 C14 9.99 14 10.98 14 12 C10.37 12 6.74 12 3 12 C3 13.98 3 15.96 3 18 C6.96 18 10.92 18 15 18 C15 18.99 15 19.98 15 21 C10.05 21 5.1 21 0 21 C0 14.07 0 7.14 0 0 Z " fill="#997551" transform="translate(555,726)"/>
<path d="M0 0 C2.4375 1 2.4375 1 4 2 C3.67 2.99 3.34 3.98 3 5 C2.39671875 4.88140625 1.7934375 4.7628125 1.171875 4.640625 C-3.92179857 3.74804486 -3.92179857 3.74804486 -8.625 5.5 C-10.56175004 9.02136371 -9.98967085 11.18269814 -9 15 C-7.16262173 17.27216848 -7.16262173 17.27216848 -4.3984375 17.1953125 C-3.40070312 17.17210937 -2.40296875 17.14890625 -1.375 17.125 C-0.37210938 17.10695313 0.63078125 17.08890625 1.6640625 17.0703125 C2.43492187 17.04710937 3.20578125 17.02390625 4 17 C3 20 3 20 1 21 C-3.63213493 21.55512815 -6.98172127 21.6364242 -11 19.125 C-14.24520759 15.67696694 -14.52488247 12.95032141 -14.47265625 8.33203125 C-13.74222604 4.7281731 -11.90897722 3.14742566 -9.0078125 1.02734375 C-5.86045155 -0.58307635 -3.44720379 -0.52033265 0 0 Z " fill="#937350" transform="translate(676,726)"/>
<path d="M0 0 C2.4375 1 2.4375 1 4 2 C3.67 2.99 3.34 3.98 3 5 C2.39671875 4.88140625 1.7934375 4.7628125 1.171875 4.640625 C-3.92179857 3.74804486 -3.92179857 3.74804486 -8.625 5.5 C-10.56175004 9.02136371 -9.98967085 11.18269814 -9 15 C-7.16262173 17.27216848 -7.16262173 17.27216848 -4.3984375 17.1953125 C-3.40070313 17.17210937 -2.40296875 17.14890625 -1.375 17.125 C-0.37210937 17.10695313 0.63078125 17.08890625 1.6640625 17.0703125 C2.43492187 17.04710937 3.20578125 17.02390625 4 17 C3 20 3 20 1 21 C-3.63213493 21.55512815 -6.98172127 21.6364242 -11 19.125 C-14.30431828 15.61416183 -14.38948117 12.93570206 -14.359375 8.26171875 C-13.78943134 4.67479071 -11.79773951 3.13161106 -9 1 C-5.97562661 -0.5121867 -3.33758466 -0.17263369 0 0 Z " fill="#977853" transform="translate(389,726)"/>
<path d="M0 0 C5.94 0 11.88 0 18 0 C18 0.99 18 1.98 18 3 C15.69 3 13.38 3 11 3 C11 8.94 11 14.88 11 21 C9.68 21 8.36 21 7 21 C7 15.39 7 9.78 7 4 C5.02 4 3.04 4 1 4 C0.67 2.68 0.34 1.36 0 0 Z " fill="#9D7F5D" transform="translate(574,726)"/>
<path d="M0 0 C1.32 0 2.64 0 4 0 C4 5.94 4 11.88 4 18 C7.63 18 11.26 18 15 18 C15 18.99 15 19.98 15 21 C10.05 21 5.1 21 0 21 C0 14.07 0 7.14 0 0 Z " fill="#997B58" transform="translate(620,726)"/>
<path d="M0 0 C1.32 0 2.64 0 4 0 C4 5.94 4 11.88 4 18 C7.63 18 11.26 18 15 18 C15 18.99 15 19.98 15 21 C10.05 21 5.1 21 0 21 C0 14.07 0 7.14 0 0 Z " fill="#997A58" transform="translate(423,726)"/>
<path d="M0 0 C0.99 0.495 0.99 0.495 2 1 C2 4.3 2 7.6 2 11 C4.64 10.67 7.28 10.34 10 10 C10.66 8.35 11.32 6.7 12 5 C12.33 5 12.66 5 13 5 C13.33 7.31 13.66 9.62 14 12 C13.34 12 12.68 12 12 12 C13.32 14.64 14.64 17.28 16 20 C14.68 20 13.36 20 12 20 C11.54625 19.195625 11.0925 18.39125 10.625 17.5625 C9.1964441 14.66192308 9.1964441 14.66192308 5.8125 14.1875 C4.884375 14.125625 3.95625 14.06375 3 14 C3 15.98 3 17.96 3 20 C2.01 20 1.02 20 0 20 C0 13.4 0 6.8 0 0 Z " fill="#8F6E49" transform="translate(509,727)"/>
<path d="M0 0 C0.99 0 1.98 0 3 0 C3 5.94 3 11.88 3 18 C6.63 18 10.26 18 14 18 C14 18.99 14 19.98 14 21 C9.38 21 4.76 21 0 21 C0 14.07 0 7.14 0 0 Z " fill="#8C6946" transform="translate(331,726)"/>
<path d="M0 0 C6.0546875 -0.1953125 6.0546875 -0.1953125 8 0 C10 2 10 2 10.125 5.125 C10.08375 6.07375 10.0425 7.0225 10 8 C6.78548731 9.60725635 3.56387464 9.05748185 0 9 C0 6.03 0 3.06 0 0 Z " fill="#EFE9D9" transform="translate(600,729)"/>
<path d="M0 0 C6.0546875 -0.1953125 6.0546875 -0.1953125 8 0 C10 2 10 2 10.25 4.5 C10 7 10 7 8 9 C5.31160615 9.26991906 2.70858064 9.08737357 0 9 C0 6.03 0 3.06 0 0 Z " fill="#EFE9D9" transform="translate(511,729)"/>
<path d="M0 0 C2.4375 1 2.4375 1 4 2 C3.67 2.66 3.34 3.32 3 4 C2.38511719 3.96519531 1.77023437 3.93039062 1.13671875 3.89453125 C-0.07564453 3.85392578 -0.07564453 3.85392578 -1.3125 3.8125 C-2.11300781 3.77769531 -2.91351563 3.74289062 -3.73828125 3.70703125 C-6.05405884 3.82228316 -6.05405884 3.82228316 -7.76171875 5.2890625 C-9.30260336 7.13711982 -9.30260336 7.13711982 -9.5 10.5625 C-9.665 11.696875 -9.83 12.83125 -10 14 C-10.99 14.66 -11.98 15.32 -13 16 C-14.57455739 12.85088521 -14.34799118 10.47991184 -14 7 C-10.33838169 0.85176029 -6.95825925 -0.35990996 0 0 Z " fill="#957553" transform="translate(362,726)"/>
<path d="M0 0 C0.99 0 1.98 0 3 0 C3 6.93 3 13.86 3 21 C2.01 21 1.02 21 0 21 C-0.19511725 18.25034772 -0.38136433 15.50057868 -0.5625 12.75 C-0.61857422 11.97269531 -0.67464844 11.19539062 -0.73242188 10.39453125 C-0.80493164 9.26337891 -0.80493164 9.26337891 -0.87890625 8.109375 C-0.9260376 7.41811523 -0.97316895 6.72685547 -1.02172852 6.01464844 C-0.99853136 3.86382928 -0.5995764 2.05915129 0 0 Z " fill="#896742" transform="translate(473,726)"/>
<path d="M0 0 C0.99 0 1.98 0 3 0 C5.31 5.61 7.62 11.22 10 17 C8.68 17 7.36 17 6 17 C5.67 15.02 5.34 13.04 5 11 C1.7 11 -1.6 11 -5 11 C-5 10.67 -5 10.34 -5 10 C-2.36 10 0.28 10 3 10 C2.505 8.906875 2.01 7.81375 1.5 6.6875 C0 3 0 3 0 0 Z " fill="#8B6D48" transform="translate(649,730)"/>
<path d="M0 0 C0.33 0 0.66 0 1 0 C0.67 2.31 0.34 4.62 0 7 C2.64 7 5.28 7 8 7 C6 9 6 9 2.5 9.375 C1.345 9.58125 0.19 9.7875 -1 10 C-2.51294288 11.93597032 -2.51294288 11.93597032 -3 14 C-4.32 13.67 -5.64 13.34 -7 13 C-6.02325896 11.01963514 -5.04354018 9.04073867 -4.0625 7.0625 C-3.51722656 5.96035156 -2.97195313 4.85820313 -2.41015625 3.72265625 C-1 1 -1 1 0 0 Z " fill="#8E6D46" transform="translate(488,733)"/>
<path d="M0 0 C0.99 0 1.98 0 3 0 C1.16508812 4.74018901 -0.91941459 9.36413251 -3 14 C-0.36 14 2.28 14 5 14 C5 14.33 5 14.66 5 15 C1.37 15 -2.26 15 -6 15 C-5.16717288 10.83586441 -4.33920962 8.34463388 -2.4375 4.6875 C-1.98246094 3.80449219 -1.52742188 2.92148437 -1.05859375 2.01171875 C-0.53458984 1.01591797 -0.53458984 1.01591797 0 0 Z " fill="#936F4B" transform="translate(406,726)"/>
<path d="M0 0 C0.33 0 0.66 0 1 0 C1 1.98 1 3.96 1 6 C4.96 6 8.92 6 13 6 C13 6.99 13 7.98 13 9 C8.38 9 3.76 9 -1 9 C-1 2 -1 2 0 0 Z " fill="#90704A" transform="translate(557,738)"/>
<path d="M0 0 C1.485 0.99 1.485 0.99 3 2 C3.2208564 4.95064148 3.28060989 7.68368231 3.1875 10.625 C3.17396484 11.42679688 3.16042969 12.22859375 3.14648438 13.0546875 C3.11109051 15.03674378 3.05728234 17.01845551 3 19 C2.01 19 1.02 19 0 19 C0 12.73 0 6.46 0 0 Z " fill="#8C6941" transform="translate(454,728)"/>
<path d="M0 0 C0.66 0 1.32 0 2 0 C2.99 2.97 3.98 5.94 5 9 C2.36 9 -0.28 9 -3 9 C-2.01 6.03 -1.02 3.06 0 0 Z " fill="#EAE3D3" transform="translate(491,730)"/>
<path d="M0 0 C3.10551666 3.10551666 3.81323934 4.89198233 5 9 C2.36 9 -0.28 9 -3 9 C-2.01 6.03 -1.02 3.06 0 0 Z " fill="#F1E8D4" transform="translate(647,730)"/>
<path d="M0 0 C2.6855594 2.6855594 3.06049974 5.37621328 4 9 C1.69 9 -0.62 9 -3 9 C-2.44271087 5.65626525 -1.64826111 2.96687001 0 0 Z " fill="#ECE5D5" transform="translate(407,730)"/>
<path d="M0 0 C0.33 0 0.66 0 1 0 C1 2.64 1 5.28 1 8 C1.66 8.33 2.32 8.66 3 9 C2.67 11.31 2.34 13.62 2 16 C1.01 16 0.02 16 -1 16 C-1.02725341 14.2709226 -1.04650987 12.54171824 -1.0625 10.8125 C-1.07410156 9.84957031 -1.08570313 8.88664063 -1.09765625 7.89453125 C-1.00486622 5.14423487 -0.62111685 2.67520409 0 0 Z " fill="#88663F" transform="translate(598,731)"/>
<path d="M0 0 C3.875 1.75 3.875 1.75 5 4 C5.04022391 6.3329866 5.04320247 8.66706666 5 11 C4.01 11 3.02 11 2 11 C1.690625 9.906875 1.38125 8.81375 1.0625 7.6875 C0.41662103 5.44592006 -0.2623117 3.2130649 -1 1 C-0.67 0.67 -0.34 0.34 0 0 Z " fill="#896944" transform="translate(365,729)"/>
<path d="M0 0 C0.721875 0.474375 1.44375 0.94875 2.1875 1.4375 C4.87108383 3.12317937 4.87108383 3.12317937 7.6875 3.5 C10 4 10 4 12 7 C4.73846154 7.49230769 4.73846154 7.49230769 1 5 C0.34 4.34 -0.32 3.68 -1 3 C-0.67 2.01 -0.34 1.02 0 0 Z " fill="#8E6D47" transform="translate(351,740)"/>
<path d="M0 0 C4.95 0 9.9 0 15 0 C15 0.99 15 1.98 15 3 C9.5610835 3.21755666 5.12919186 3.10428384 0 1 C0 0.67 0 0.34 0 0 Z " fill="#997B59" transform="translate(687,726)"/>
<path d="M0 0 C0.33 0 0.66 0 1 0 C1.125 3.375 1.125 3.375 1 7 C-1 9 -1 9 -3.1640625 9.1953125 C-4.38222656 9.16050781 -4.38222656 9.16050781 -5.625 9.125 C-6.44226563 9.10695313 -7.25953125 9.08890625 -8.1015625 9.0703125 C-8.72804688 9.04710937 -9.35453125 9.02390625 -10 9 C-10 8.67 -10 8.34 -10 8 C-9.05125 7.690625 -8.1025 7.38125 -7.125 7.0625 C-4.13919592 6.12605258 -4.13919592 6.12605258 -2 5 C-1.27840576 3.35636866 -0.60648579 1.68949614 0 0 Z " fill="#86633D" transform="translate(612,731)"/>
<path d="M0 0 C3 1 3 1 4.6875 3.9375 C6 7 6 7 6 9 C4.68 9 3.36 9 2 9 C1.34 6.03 0.68 3.06 0 0 Z " fill="#90724B" transform="translate(497,738)"/>
<path d="M0 0 C2.375 -0.125 2.375 -0.125 5 0 C7 2 7 2 7.125 5.625 C7.08375 6.73875 7.0425 7.8525 7 9 C6.67 9 6.34 9 6 9 C5.67 7.35 5.34 5.7 5 4 C4.34 5.32 3.68 6.64 3 8 C2.690625 7.05125 2.38125 6.1025 2.0625 5.125 C1.12605258 2.13919592 1.12605258 2.13919592 0 0 Z " fill="#9C7E5B" transform="translate(607,728)"/>
<path d="M0 0 C-1 3 -1 3 -3 4 C-5.3329866 4.04022391 -7.66706666 4.04320247 -10 4 C-10 3.34 -10 2.68 -10 2 C-6.38026598 0.68373308 -3.90432869 0 0 0 Z " fill="#8B6A44" transform="translate(393,743)"/>
<path d="M0 0 C0.66 0 1.32 0 2 0 C1.67 1.65 1.34 3.3 1 5 C3.64 5 6.28 5 9 5 C9 5.33 9 5.66 9 6 C5.37 6 1.74 6 -2 6 C-1 1 -1 1 0 0 Z " fill="#87643E" transform="translate(402,735)"/>
<path d="M0 0 C3.63 0 7.26 0 11 0 C10.34 1.32 9.68 2.64 9 4 C8.67 3.67 8.34 3.34 8 3 C6.48530552 2.76807135 4.96245438 2.58784762 3.4375 2.4375 C2.61121094 2.35371094 1.78492188 2.26992188 0.93359375 2.18359375 C0.29550781 2.12300781 -0.34257812 2.06242188 -1 2 C-0.67 1.34 -0.34 0.68 0 0 Z " fill="#9B7954" transform="translate(511,727)"/>
<path d="M0 0 C-1 3 -1 3 -3 4 C-5.3329866 4.04022391 -7.66706666 4.04320247 -10 4 C-10 3.34 -10 2.68 -10 2 C-3.375 0 -3.375 0 0 0 Z " fill="#85663F" transform="translate(680,743)"/>
<path d="M0 0 C1.22589844 0.29197266 1.22589844 0.29197266 2.4765625 0.58984375 C3.41628906 0.82380859 3.41628906 0.82380859 4.375 1.0625 C4.375 1.3925 4.375 1.7225 4.375 2.0625 C2.725 2.0625 1.075 2.0625 -0.625 2.0625 C-0.625 2.7225 -0.625 3.3825 -0.625 4.0625 C-5.5 2.3125 -5.5 2.3125 -6.625 0.0625 C-3.99249612 -1.25375194 -2.82320944 -0.68563658 0 0 Z " fill="#9D815B" transform="translate(670.625,742.9375)"/>
<path d="M0 0 C0.99 0 1.98 0 3 0 C3.33 2.31 3.66 4.62 4 7 C2.68 6.67 1.36 6.34 0 6 C0 4.02 0 2.04 0 0 Z " fill="#8D6D48" transform="translate(375,735)"/>
<path d="M0 0 C7.42857143 -0.28571429 7.42857143 -0.28571429 11 2 C10.67 2.66 10.34 3.32 10 4 C3.47692308 3.38461538 3.47692308 3.38461538 1.0625 1.4375 C0.711875 0.963125 0.36125 0.48875 0 0 Z " fill="#9C7B59" transform="translate(355,726)"/>
<path d="M0 0 C4 1 4 1 7 3 C5.02 3 3.04 3 1 3 C1 4.98 1 6.96 1 9 C0.67 9 0.34 9 0 9 C0 6.03 0 3.06 0 0 Z " fill="#A78B6A" transform="translate(511,738)"/>
<path d="M0 0 C1.32 0.33 2.64 0.66 4 1 C3.67 2.32 3.34 3.64 3 5 C3.66 5.33 4.32 5.66 5 6 C4.01 6 3.02 6 2 6 C1.67 5.34 1.34 4.68 1 4 C0.01 4 -0.98 4 -2 4 C-1.34 2.68 -0.68 1.36 0 0 Z " fill="#E6E0CE" transform="translate(394,742)"/>
<path d="M0 0 C0.66 0.33 1.32 0.66 2 1 C1.67 3.64 1.34 6.28 1 9 C-0.32 9 -1.64 9 -3 9 C-2.01 6.03 -1.02 3.06 0 0 Z " fill="#E2D9C7" transform="translate(647,730)"/>
<path d="M0 0 C0.99 0.33 1.98 0.66 3 1 C2.67 3.31 2.34 5.62 2 8 C1.34 8 0.68 8 0 8 C0 5.36 0 2.72 0 0 Z " fill="#815F38" transform="translate(533,739)"/>
<path d="M0 0 C1.66666667 0 3.33333333 0 5 0 C4.1875 1.9375 4.1875 1.9375 3 4 C2.01 4.33 1.02 4.66 0 5 C-0.5625 3.0625 -0.5625 3.0625 -1 1 C-0.67 0.67 -0.34 0.34 0 0 Z " fill="#ECE2CE" transform="translate(436,653)"/>
</svg>
